<svg id="Group_13856" data-name="Group 13856" xmlns="http://www.w3.org/2000/svg" width="80" height="80" viewBox="0 0 80 80">
  <path id="Path_61335" data-name="Path 61335" d="M0,0H80V80H0Z" transform="translate(0 0)" fill="none"/>
  <path id="Path_61336" data-name="Path 61336" d="M16.456,54.54c-.939-4.18-5.174-7.6-6.912-9.852A27.015,27.015,0,0,1,12.077,9.023,24.592,24.592,0,0,1,46.5,9.028,27.015,27.015,0,0,1,49.017,44.7c-1.738,2.249-5.967,5.668-6.905,9.845H16.453Zm25.47,6.568v3.284A6.448,6.448,0,0,1,35.6,70.96H22.963a6.448,6.448,0,0,1-6.321-6.568V61.108ZM32.444,28.285V15.133L18.222,34.853h7.9V47.989l14.222-19.7h-7.9Z" transform="translate(10.716 5.361)" fill="#347f95"/>
</svg>
