<svg xmlns="http://www.w3.org/2000/svg" width="191.139" height="141.593" viewBox="0 0 191.139 141.593">
  <g id="Group_7048" data-name="Group 7048" transform="translate(0.5)">
    <path id="Path_48484" data-name="Path 48484" d="M163.479,0H42.114A10.114,10.114,0,0,0,32,10.114V131.479a10.114,10.114,0,0,0,10.114,10.114H163.479a10.114,10.114,0,0,0,10.114-10.114V10.114A10.114,10.114,0,0,0,163.479,0Z" transform="translate(-5.704)" fill="rgba(52,127,149,0.1)"/>
    <g id="Group_6885" data-name="Group 6885" transform="translate(43.489 54.614)">
      <path id="Path_48485" data-name="Path 48485" d="M54.057,54H190.593a5.056,5.056,0,0,1,5.057,5.057V84.341a5.056,5.056,0,0,1-5.057,5.057H54.057A5.057,5.057,0,0,1,49,84.341V59.057A5.057,5.057,0,0,1,54.057,54Z" transform="translate(-49 -54)" fill="#fff" stroke="rgba(112,112,112,0.08)" stroke-width="1"/>
    </g>
    <path id="Path_48486" data-name="Path 48486" d="M128.33,62h-26.3a3.034,3.034,0,1,0,0,6.068h26.3a3.034,3.034,0,1,0,0-6.068Z" transform="translate(-4.942 0.705)" fill="#5ebcd8"/>
    <path id="Path_48487" data-name="Path 48487" d="M146.535,75h-44.5a3.034,3.034,0,1,0,0,6.068h44.5a3.034,3.034,0,0,0,0-6.068Z" transform="translate(-4.942 0.853)" fill="#dee9fc"/>
    <path id="Path_48488" data-name="Path 48488" d="M79.608,81.216A9.608,9.608,0,1,0,70,71.608,9.608,9.608,0,0,0,79.608,81.216Z" transform="translate(-5.272 0.705)" fill="#347f95"/>
    <g id="Group_6886" data-name="Group 6886" transform="translate(0 98.103)">
      <path id="Path_48490" data-name="Path 48490" d="M11.057,97H147.593a5.056,5.056,0,0,1,5.057,5.057v25.284a5.055,5.055,0,0,1-5.057,5.057H11.057A5.056,5.056,0,0,1,6,127.341V102.057A5.057,5.057,0,0,1,11.057,97Z" transform="translate(-6 -97)" fill="#fff" stroke="rgba(112,112,112,0.08)" stroke-width="1"/>
    </g>
    <path id="Path_48491" data-name="Path 48491" d="M85.33,105h-26.3a3.034,3.034,0,1,0,0,6.068h26.3a3.034,3.034,0,1,0,0-6.068Z" transform="translate(-5.431 1.194)" fill="#5ebcd8"/>
    <path id="Path_48492" data-name="Path 48492" d="M103.535,118h-44.5a3.034,3.034,0,1,0,0,6.068h44.5a3.034,3.034,0,1,0,0-6.068Z" transform="translate(-5.431 1.342)" fill="#dee9fc"/>
    <path id="Path_48493" data-name="Path 48493" d="M23.608,124.216A9.608,9.608,0,1,0,14,114.608,9.608,9.608,0,0,0,23.608,124.216Z" transform="translate(-5.909 1.194)" fill="#347f95"/>
    <g id="Group_6887" data-name="Group 6887" transform="translate(0 11.125)">
      <path id="Path_48495" data-name="Path 48495" d="M147.593,11H11.057A5.057,5.057,0,0,0,6,16.057V41.341A5.057,5.057,0,0,0,11.057,46.4H147.593a5.057,5.057,0,0,0,5.057-5.057V16.057A5.057,5.057,0,0,0,147.593,11Z" transform="translate(-6 -11)" fill="#fff" stroke="rgba(112,112,112,0.08)" stroke-width="1"/>
    </g>
    <path id="Path_48496" data-name="Path 48496" d="M83.33,19h-26.3a3.034,3.034,0,0,0,0,6.068h26.3a3.034,3.034,0,1,0,0-6.068Z" transform="translate(-5.454 0.216)" fill="#5ebcd8"/>
    <path id="Path_48497" data-name="Path 48497" d="M101.535,32h-44.5a3.034,3.034,0,0,0,0,6.068h44.5a3.034,3.034,0,0,0,0-6.068Z" transform="translate(-5.454 0.364)" fill="#dee9fc"/>
    <path id="Path_48498" data-name="Path 48498" d="M36.608,38.216A9.608,9.608,0,1,0,27,28.608,9.608,9.608,0,0,0,36.608,38.216Z" transform="translate(-5.761 0.216)" fill="#347f95"/>
    <g id="Group_6894" data-name="Group 6894" transform="translate(26.54 24.762)">
      <path id="Path_47408" data-name="Path 47408" d="M0,0H8.614V8.614H0Z" fill="none"/>
      <path id="Path_47409" data-name="Path 47409" d="M5.326,7.641c-.1-.449-.551-.816-.736-1.057a2.917,2.917,0,0,1,.27-3.828,2.6,2.6,0,0,1,3.664,0,2.917,2.917,0,0,1,.269,3.828,2.959,2.959,0,0,0-.735,1.057H5.326Zm2.712.7V8.7a.69.69,0,0,1-.673.7H6.019a.69.69,0,0,1-.673-.7V8.346ZM7.028,4.822V3.411L5.514,5.527h.841v1.41L7.869,4.822H7.028Z" transform="translate(-2.385 -1.193)" fill="#fcfcfc"/>
    </g>
    <g id="Group_6896" data-name="Group 6896" transform="translate(70.03 68.006)">
      <path id="Path_47408-2" data-name="Path 47408" d="M0,0H8.614V8.614H0Z" fill="none"/>
      <path id="Path_47409-2" data-name="Path 47409" d="M5.326,7.641c-.1-.449-.551-.816-.736-1.057a2.917,2.917,0,0,1,.27-3.828,2.6,2.6,0,0,1,3.664,0,2.917,2.917,0,0,1,.269,3.828,2.959,2.959,0,0,0-.735,1.057H5.326Zm2.712.7V8.7a.69.69,0,0,1-.673.7H6.019a.69.69,0,0,1-.673-.7V8.346ZM7.028,4.822V3.411L5.514,5.527h.841v1.41L7.869,4.822H7.028Z" transform="translate(-2.385 -1.193)" fill="#fcfcfc"/>
    </g>
    <g id="Group_6897" data-name="Group 6897" transform="translate(13.392 111.496)">
      <path id="Path_47408-3" data-name="Path 47408" d="M0,0H8.614V8.614H0Z" fill="none"/>
      <path id="Path_47409-3" data-name="Path 47409" d="M5.326,7.641c-.1-.449-.551-.816-.736-1.057a2.917,2.917,0,0,1,.27-3.828,2.6,2.6,0,0,1,3.664,0,2.917,2.917,0,0,1,.269,3.828,2.959,2.959,0,0,0-.735,1.057H5.326Zm2.712.7V8.7a.69.69,0,0,1-.673.7H6.019a.69.69,0,0,1-.673-.7V8.346ZM7.028,4.822V3.411L5.514,5.527h.841v1.41L7.869,4.822H7.028Z" transform="translate(-2.385 -1.193)" fill="#fcfcfc"/>
    </g>
  </g>
</svg>
