<svg id="Iconly_Bold_Graph" data-name="Iconly/Bold/Graph" xmlns="http://www.w3.org/2000/svg" width="20" height="18" viewBox="0 0 24 24">
  <g id="Graph" transform="translate(0 0)">
    <path id="Graph-2" data-name="Graph" d="M1.306,18.617A9.844,9.844,0,0,1,.078,14.853,7.116,7.116,0,0,1,0,13.67,10.433,10.433,0,0,1,8.348,3.551a1.32,1.32,0,0,1,1.434.715,1.326,1.326,0,0,1,.152.309c.163,2.516.337,4.99.5,7.464a2.221,2.221,0,0,0,.12.756,1.228,1.228,0,0,0,1.206.757l7.987-.511.055.021a1.3,1.3,0,0,1,.907.387,1.258,1.258,0,0,1,.364.9,10.4,10.4,0,0,1-8.253,9.406A10.738,10.738,0,0,1,10.554,24,10.576,10.576,0,0,1,1.306,18.617Zm11.741-7.708a1.056,1.056,0,0,1-.352-.789l-.62-9.053V.918a.952.952,0,0,1,.318-.666A.988.988,0,0,1,13.1,0,11.306,11.306,0,0,1,24,9.468a.358.358,0,0,1,0,.1.943.943,0,0,1-.237.69.976.976,0,0,1-.666.323l-9.215.608q-.049,0-.1,0A1.1,1.1,0,0,1,13.047,10.909Z" fill="#d8f7ff"/>
  </g>
</svg>
