<svg xmlns="http://www.w3.org/2000/svg" viewBox="0 0 167.798 192.656">
  <g id="electric-meter" transform="translate(-33.032)">
    <path id="Path_45137" data-name="Path 45137" d="M99.1,371.613v46.61a6.215,6.215,0,0,0,6.215,6.215h105.65a6.215,6.215,0,0,0,6.215-6.215v-46.61Z" transform="translate(-41.206 -231.782)" fill="#edebed"/>
    <rect id="Rectangle_1788" data-name="Rectangle 1788" width="118.081" height="9.322" transform="translate(57.892 139.83)" fill="#dbd9dc"/>
    <g id="Group_5341" data-name="Group 5341" transform="translate(33.032 59.039)">
      <path id="Path_45138" data-name="Path 45138" d="M39.247,163.117a6.215,6.215,0,0,0,0,12.429,6.215,6.215,0,0,1,6.215,6.215V156.9A6.214,6.214,0,0,1,39.247,163.117Z" transform="translate(-33.032 -156.902)" fill="#4b3f4e"/>
      <path id="Path_45139" data-name="Path 45139" d="M452.151,163.118a6.215,6.215,0,0,1-6.215-6.215v24.859a6.215,6.215,0,0,1,6.215-6.215,6.215,6.215,0,0,0,0-12.43Z" transform="translate(-290.568 -156.903)" fill="#4b3f4e"/>
    </g>
    <path id="Path_45140" data-name="Path 45140" d="M196.574,142.939H78.494a12.429,12.429,0,0,1-12.429-12.429V12.429A12.429,12.429,0,0,1,78.494,0h118.08A12.429,12.429,0,0,1,209,12.429v118.08A12.43,12.43,0,0,1,196.574,142.939Z" transform="translate(-20.603 0)" fill="#6f6571"/>
    <path id="Path_45141" data-name="Path 45141" d="M199.681,118.08V18.644a9.322,9.322,0,0,0-9.322-9.322H90.924a3.107,3.107,0,0,1-3.107-3.107V0H78.494A12.429,12.429,0,0,0,66.065,12.429v118.08a12.429,12.429,0,0,0,12.429,12.429h118.08A12.429,12.429,0,0,0,209,130.509v-9.322h-6.215A3.107,3.107,0,0,1,199.681,118.08Z" transform="translate(-20.603)" fill="#5d5360"/>
    <path id="Path_45142" data-name="Path 45142" d="M216.113,153.155H110.462a3.107,3.107,0,0,1-3.107-3.107V44.4a3.107,3.107,0,0,1,3.107-3.107h105.65A3.107,3.107,0,0,1,219.22,44.4v105.65A3.108,3.108,0,0,1,216.113,153.155Z" transform="translate(-46.357 -25.753)" fill="#edebed"/>
    <path id="Path_45143" data-name="Path 45143" d="M132.129,379.871v21.751a3.107,3.107,0,0,0,3.107,3.107h87.006a3.107,3.107,0,0,0,3.107-3.107V379.871Z" transform="translate(-61.809 -236.932)" fill="#5d5360"/>
    <rect id="Rectangle_1789" data-name="Rectangle 1789" width="93.22" height="6.215" transform="translate(70.321 142.938)" fill="#4b3f4e"/>
    <path id="Path_45144" data-name="Path 45144" d="M228.373,150.773H160.01a3.107,3.107,0,0,1-3.107-3.107V135.236a3.107,3.107,0,0,1,3.107-3.107h68.362a3.107,3.107,0,0,1,3.107,3.107v12.429A3.107,3.107,0,0,1,228.373,150.773Z" transform="translate(-77.261 -82.411)" fill="#5d5360"/>
    <g id="Group_5342" data-name="Group 5342" transform="translate(79.643 83.897)">
      <circle id="Ellipse_2680" data-name="Ellipse 2680" cx="6.215" cy="6.215" r="6.215" fill="#c9c6ca"/>
      <circle id="Ellipse_2681" data-name="Ellipse 2681" cx="6.215" cy="6.215" r="6.215" transform="translate(62.147)" fill="#c9c6ca"/>
    </g>
    <circle id="Ellipse_2682" data-name="Ellipse 2682" cx="6.215" cy="6.215" r="6.215" transform="translate(110.716 83.897)" fill="#e6646e"/>
    <g id="Group_5343" data-name="Group 5343" transform="translate(88.966 49.718)">
      <rect id="Rectangle_1790" data-name="Rectangle 1790" width="6.215" height="18.644" fill="#4b3f4e"/>
      <rect id="Rectangle_1791" data-name="Rectangle 1791" width="6.215" height="18.644" transform="translate(12.429)" fill="#4b3f4e"/>
      <rect id="Rectangle_1792" data-name="Rectangle 1792" width="6.215" height="18.644" transform="translate(24.857)" fill="#4b3f4e"/>
      <rect id="Rectangle_1793" data-name="Rectangle 1793" width="6.215" height="18.644" transform="translate(37.286)" fill="#4b3f4e"/>
      <rect id="Rectangle_1794" data-name="Rectangle 1794" width="6.215" height="18.644" transform="translate(49.718)" fill="#4b3f4e"/>
    </g>
    <path id="Path_45145" data-name="Path 45145" d="M336.538,150.773h-6.215V132.129h6.215a3.107,3.107,0,0,1,3.107,3.107v12.429A3.107,3.107,0,0,1,336.538,150.773Z" transform="translate(-185.426 -82.411)" fill="#e6646e"/>
    <g id="Group_5344" data-name="Group 5344" transform="translate(60.998 15.537)">
      <path id="Path_45146" data-name="Path 45146" d="M150.858,146.941a37.288,37.288,0,0,1-37.288-37.288V41.29h-3.107a3.107,3.107,0,0,0-3.107,3.107v105.65a3.107,3.107,0,0,0,3.107,3.107h105.65a3.107,3.107,0,0,0,3.107-3.107V146.94H150.858Z" transform="translate(-107.355 -41.29)" fill="#dbd9dc"/>
      <path id="Path_45147" data-name="Path 45147" d="M173.419,379.871v15.537a3.107,3.107,0,0,0,6.215,0V379.871Z" transform="translate(-148.56 -252.469)" fill="#dbd9dc"/>
    </g>
    <g id="Group_5345" data-name="Group 5345" transform="translate(85.858 146.047)">
      <circle id="Ellipse_2683" data-name="Ellipse 2683" cx="3.107" cy="3.107" r="3.107" transform="translate(0 9.321)" fill="#c9c6ca"/>
      <circle id="Ellipse_2684" data-name="Ellipse 2684" cx="3.107" cy="3.107" r="3.107" fill="#c9c6ca"/>
    </g>
    <path id="Path_45148" data-name="Path 45148" d="M222.968,379.871v15.537a3.107,3.107,0,0,0,6.215,0V379.871Z" transform="translate(-118.466 -236.932)" fill="#dbd9dc"/>
    <g id="Group_5346" data-name="Group 5346" transform="translate(104.503 146.047)">
      <circle id="Ellipse_2685" data-name="Ellipse 2685" cx="3.107" cy="3.107" r="3.107" transform="translate(0 9.321)" fill="#c9c6ca"/>
      <circle id="Ellipse_2686" data-name="Ellipse 2686" cx="3.107" cy="3.107" r="3.107" fill="#c9c6ca"/>
    </g>
    <path id="Path_45149" data-name="Path 45149" d="M272.516,379.871v15.537a3.107,3.107,0,0,0,6.215,0V379.871Z" transform="translate(-149.37 -236.932)" fill="#dbd9dc"/>
    <g id="Group_5347" data-name="Group 5347" transform="translate(123.144 146.047)">
      <circle id="Ellipse_2687" data-name="Ellipse 2687" cx="3.107" cy="3.107" r="3.107" transform="translate(0 9.321)" fill="#c9c6ca"/>
      <circle id="Ellipse_2688" data-name="Ellipse 2688" cx="3.107" cy="3.107" r="3.107" fill="#c9c6ca"/>
    </g>
    <path id="Path_45150" data-name="Path 45150" d="M322.065,379.871v15.537a3.107,3.107,0,1,0,6.215,0V379.871Z" transform="translate(-180.275 -236.932)" fill="#dbd9dc"/>
    <g id="Group_5348" data-name="Group 5348" transform="translate(141.789 146.047)">
      <circle id="Ellipse_2689" data-name="Ellipse 2689" cx="3.107" cy="3.107" r="3.107" transform="translate(0 9.321)" fill="#c9c6ca"/>
      <circle id="Ellipse_2690" data-name="Ellipse 2690" cx="3.107" cy="3.107" r="3.107" fill="#c9c6ca"/>
    </g>
  </g>
</svg>
