<svg id="Group_14807" data-name="Group 14807" xmlns="http://www.w3.org/2000/svg" width="72.074" height="72.074" viewBox="0 0 72.074 72.074">
  <path id="Path_61343" data-name="Path 61343" d="M0,0H72.074V72.074H0Z" fill="none"/>
  <path id="Path_61344" data-name="Path 61344" d="M31.45,2,57.4,9.806a3.441,3.441,0,0,1,2.5,3.269v6.043h7.113a3.492,3.492,0,0,1,3.556,3.424v6.847H24.338V22.541a3.492,3.492,0,0,1,3.556-3.424H52.788V15.591L31.45,9.169,10.113,15.591V40.939A13.522,13.522,0,0,0,15.656,51.79l.67.464L31.45,62.186,44.9,53.353H27.894a3.492,3.492,0,0,1-3.556-3.424V36.235H70.57V49.929a3.492,3.492,0,0,1-3.556,3.424l-11.451,0a20.975,20.975,0,0,1-4.979,4.553L31.45,70.471,12.317,57.913A20.338,20.338,0,0,1,3,40.939V13.075A3.441,3.441,0,0,1,5.5,9.809Z" transform="translate(-0.297 -0.198)" fill="#347f95"/>
</svg>
