<svg xmlns="http://www.w3.org/2000/svg" width="71.577" height="58.958" viewBox="0 0 71.577 58.958">
  <g id="Group_14806" data-name="Group 14806" transform="translate(-1.711 -3.52)">
    <path id="Path_61345" data-name="Path 61345" d="M62.407,14.366C60.912,6.822,55.315,3.52,47.529,3.52H17.007c-9.177,0-15.3,4.589-15.3,15.3v17.9c0,7.717,3.163,12.236,8.378,14.183a13.518,13.518,0,0,0,2.468.66,20.328,20.328,0,0,0,4.45.452H47.563c9.177,0,15.3-4.589,15.3-15.3v-17.9A19.679,19.679,0,0,0,62.407,14.366ZM14.991,33a2.607,2.607,0,0,1-5.214,0V22.57a2.607,2.607,0,0,1,5.214,0Zm17.277,3.963a9.177,9.177,0,1,1,9.177-9.177A9.169,9.169,0,0,1,32.268,36.962ZM54.724,33a2.607,2.607,0,1,1-5.214,0V22.57a2.607,2.607,0,1,1,5.214,0Z" transform="translate(0 0)" fill="#347f95"/>
    <path id="Path_61346" data-name="Path 61346" d="M63.114,19.065v17.9c0,10.707-6.118,15.33-15.33,15.33H17.262a19.568,19.568,0,0,1-6.953-1.147A11.722,11.722,0,0,1,6.1,48.579a.9.9,0,0,1,.73-1.53H37.355c12.862,0,20.51-7.648,20.51-20.475V8.637a.9.9,0,0,1,1.53-.73C61.758,10.41,63.114,14.06,63.114,19.065Z" transform="translate(10.174 10.179)" fill="#347f95"/>
    <path id="Union_2" data-name="Union 2" d="M17528.232,19009.7l-1.7-2.26h-2.672v2.26h-1.668v-2.26h-1.2v-1.133h1.2v-2.256h-1.2v-1.133h1.2V19001h1.686l1.451,1.92h2.8V19001h1.664v1.92h1.2v1.133h-1.2v2.256h1.2v1.133h-1.2v2.26Zm-.1-3.393v-2.256h-1.941l1.709,2.256Zm-2.443,0-1.7-2.256h-.127v2.256Z" transform="translate(-17494 -18977.537)" fill="#19181e" stroke="rgba(0,0,0,0)" stroke-miterlimit="10" stroke-width="1"/>
  </g>
</svg>
