<svg xmlns="http://www.w3.org/2000/svg" width="124.256" height="133.075" viewBox="0 0 124.256 133.075"><g transform="translate(-172 -1283.57)"><path d="M74.013,12.643a51.831,51.831,0,0,1,14.709,2.079c24.51,7.154,37.04,32.426,35.389,52.284-1.947,23.418-30.124,46.913-63.6,46.351C30.689,112.795,0,101.279,0,67.007S39.741,12.643,74.013,12.643Z" transform="translate(172 1303.278)" fill="#347f95"/><g transform="translate(201.384 1283.57)"><path d="M659.374,124.767H617.824a8.833,8.833,0,0,0-8.617,6.89l-20.994,93.121a7.139,7.139,0,0,0,6.613,8.7l42.714,2.1a9.431,9.431,0,0,0,9.744-7.741L659.194,162l.886.253,2.279-12.479-.912-.228,3.324-18.378a5.438,5.438,0,0,0-5.4-6.407Z" transform="translate(-588.038 -124.766)" fill="#3f3d56"/><path d="M643.428,136.4h-4.85a6.1,6.1,0,0,0-5.964,4.8L612.463,233.56a3.782,3.782,0,0,0,3.448,4.58l42.575,2.791a4.9,4.9,0,0,0,5.141-4.02l17.2-95.465A4.29,4.29,0,0,0,676.6,136.4H672a2.025,2.025,0,0,0-1.955,1.5h0a1.788,1.788,0,0,1-1.727,1.323H646.476a3.056,3.056,0,0,1-3.047-2.821Z" transform="translate(-608.173 -134.387)" fill="#fbfbfb"/><path d="M713.649,255.626a.346.346,0,0,0,.352-.283l9.415-51.963a.349.349,0,0,0-.072-.282.339.339,0,0,0-.259-.126l-42.835-.506h0a.343.343,0,0,0-.333.27l-11.1,50.276a.349.349,0,0,0,.061.285.339.339,0,0,0,.255.136Z" transform="translate(-654.858 -189.049)" fill="#e6e6e6"/><path d="M710.48,529.535a.173.173,0,0,0-.168.133l-.4,1.719a.173.173,0,0,0,.155.212l22.661,1.611a.174.174,0,0,0,.182-.139l.386-1.989a.173.173,0,0,0-.159-.205l-22.645-1.341Z" transform="translate(-688.862 -459.598)" fill="#e6e6e6"/><path d="M733.164,566.908a.173.173,0,0,0,.181-.131l.491-1.993a.173.173,0,0,0-.155-.214l-28.94-2.024a.171.171,0,0,0-.178.123l-.51,1.723a.173.173,0,0,0,.152.221Z" transform="translate(-684.015 -486.911)" fill="#e6e6e6"/><path d="M724.164,603.908a.173.173,0,0,0,.181-.131l.491-1.993a.173.173,0,0,0-.155-.214l-28.94-2.024a.171.171,0,0,0-.178.123l-.51,1.723a.173.173,0,0,0,.152.221Z" transform="translate(-676.569 -517.521)" fill="#e6e6e6"/><path d="M701.319,659.572a.171.171,0,0,0,.184-.13l1.038-4.153a.173.173,0,0,0-.153-.214l-17.772-1.495a.176.176,0,0,0-.183.134l-.886,3.986a.173.173,0,0,0,.152.209Z" transform="translate(-667.05 -562.263)" fill="#347f95"/></g></g></svg>