<svg id="Group_10069" data-name="Group 10069" xmlns="http://www.w3.org/2000/svg" width="98" height="98" viewBox="0 0 98 98">
  <path id="Path_56628" data-name="Path 56628" d="M0,0H98V98H0Z" fill="none"/>
  <path id="Path_56629" data-name="Path 56629" d="M9.464,55.857C5.258,51.389,3,46.379,3,38.257c0-14.292,10.033-27.1,24.623-33.434l3.646,5.627C17.651,17.816,14.989,27.375,13.927,33.4a14.62,14.62,0,0,1,7.877-1.27,14.291,14.291,0,0,1-1.119,28.538A15.807,15.807,0,0,1,9.464,55.857Zm40.833,0c-4.206-4.467-6.464-9.477-6.464-17.6,0-14.292,10.033-27.1,24.623-33.434L72.1,10.45C58.484,17.816,55.822,27.375,54.76,33.4a14.62,14.62,0,0,1,7.877-1.27,14.291,14.291,0,0,1-1.119,28.538A15.807,15.807,0,0,1,50.3,55.857Z" transform="translate(9.25 14.871)" fill="#0d3643"/>
</svg>
