<svg xmlns="http://www.w3.org/2000/svg" width="199.474" height="157.697" viewBox="0 0 199.474 157.697">
  <g id="Group_9934" data-name="Group 9934" transform="translate(-429.548 -311.7)">
    <g id="Group_9934-2" data-name="Group 9934" transform="translate(456.079 365.904)">
      <path id="Path_56574" data-name="Path 56574" d="M896.182,1071.066c-.545.815-1.083,1.635-1.6,2.47-13.444,21.791-41.9,39.55-69.154,39.55a75.442,75.442,0,0,1-66.775-40.29.09.09,0,0,0-.011-.021q-.652-1.242-1.263-2.508a35.632,35.632,0,0,1,45.707-47.783q.558.241,1.118.472a83.751,83.751,0,0,0,56.807,2.488l0,.015a29.5,29.5,0,0,1,8.766-1.327c16.3-.007,31.308,14.159,31.357,30.463A29.38,29.38,0,0,1,896.182,1071.066Z" transform="translate(-754.203 -1019.928)" fill="#fbca0c"/>
    </g>
    <path id="Path_56575" data-name="Path 56575" d="M759.161,1061.947c.545-.815,1.083-1.635,1.6-2.469,13.444-21.791,41.9-39.55,69.155-39.55a75.442,75.442,0,0,1,66.775,40.29.09.09,0,0,0,.011.021q.653,1.241,1.263,2.508a35.632,35.632,0,0,1-45.707,47.783q-.558-.241-1.118-.472a83.753,83.753,0,0,0-56.807-2.487l0-.015a29.507,29.507,0,0,1-8.766,1.327c-16.3.007-31.308-14.159-31.357-30.463A29.381,29.381,0,0,1,759.161,1061.947Z" transform="translate(-298.123 -654.024)" fill="#78cfe2"/>
    <g id="Group_9936" data-name="Group 9936" transform="translate(444.674 409.375)">
      <g id="Group_9935" data-name="Group 9935" transform="translate(0)">
        <path id="Path_56576" data-name="Path 56576" d="M621.419,1555.739h0a.427.427,0,0,1,.1.595l-2.084,2.968,3.654,2.592-2.574,3.666,3.654,2.593-2.572,3.666a.427.427,0,0,1-.595.1h0a.427.427,0,0,1-.1-.595l2.084-2.97-3.308-2.347a.427.427,0,0,1-.1-.594l2.329-3.317-3.307-2.346a.427.427,0,0,1-.1-.594l2.328-3.316A.427.427,0,0,1,621.419,1555.739Z" transform="translate(-618.109 -1555.351)" fill="#fbca0c"/>
        <path id="Path_56577" data-name="Path 56577" d="M617.776,1568.828a.737.737,0,0,1-.6-1.16l1.907-2.718-3.056-2.169a.738.738,0,0,1-.177-1.024l2.152-3.065-3.056-2.167a.738.738,0,0,1-.177-1.025l2.328-3.316a.737.737,0,0,1,1.026-.179h0a.737.737,0,0,1,.18,1.026l-1.907,2.716,3.654,2.592L617.476,1562l3.653,2.593-2.749,3.918a.732.732,0,0,1-.476.3A.743.743,0,0,1,617.776,1568.828Zm-.076-16.338-.02,0a.117.117,0,0,0-.076.048l-2.328,3.316a.118.118,0,0,0,.028.163l3.559,2.524-2.507,3.57a.118.118,0,0,0,.028.163l3.559,2.525-2.261,3.222a.117.117,0,1,0,.192.135l2.4-3.414-3.654-2.593,2.574-3.666-3.654-2.591,2.261-3.22a.117.117,0,0,0-.029-.163h0A.115.115,0,0,0,617.7,1552.489Z" transform="translate(-614.635 -1551.87)" fill="#fbca0c"/>
      </g>
    </g>
    <g id="Group_9937" data-name="Group 9937" transform="translate(606.171 421.486)">
      <path id="Path_56578" data-name="Path 56578" d="M2598.338,1705.223l-1.267.246-.247-1.267a.427.427,0,1,0-.838.163l.246,1.267-1.267.246a.427.427,0,1,0,.163.839l1.267-.246.246,1.267a.427.427,0,1,0,.839-.163l-.247-1.267,1.267-.246a.427.427,0,1,0-.163-.839Z" transform="translate(-2594.31 -1703.547)" fill="#2c326c"/>
      <path id="Path_56579" data-name="Path 56579" d="M2593.581,1704.911a.738.738,0,0,1-.723-.6l-.187-.963-.963.187a.737.737,0,0,1-.864-.583.738.738,0,0,1,.583-.864l.963-.187-.187-.963a.737.737,0,1,1,1.446-.281l.188.963.963-.187a.737.737,0,0,1,.281,1.447l-.963.187.188.963a.737.737,0,0,1-.724.877Zm-.42-2.285.306,1.571a.117.117,0,0,0,.23-.045l-.306-1.571,1.571-.305a.117.117,0,0,0-.045-.23l-1.571.305-.306-1.571a.117.117,0,0,0-.137-.093.118.118,0,0,0-.093.137l.306,1.571-1.572.305a.117.117,0,0,0-.092.138.115.115,0,0,0,.049.075.116.116,0,0,0,.088.018Z" transform="translate(-2590.83 -1700.064)" fill="#2c326c"/>
    </g>
    <path id="Path_56580" data-name="Path 56580" d="M983.957,884.679h-1.079l.763-.763a.427.427,0,0,0-.6-.6l-.763.763V883a.427.427,0,0,0-.427-.427h0a.427.427,0,0,0-.427.427v1.079l-.763-.763a.427.427,0,0,0-.6.6l.763.763h-1.079a.427.427,0,0,0-.427.427h0a.427.427,0,0,0,.427.427h1.079l-.763.763a.427.427,0,0,0,.6.6l.763-.763v1.079a.427.427,0,0,0,.427.427h0a.427.427,0,0,0,.427-.427v-1.079l.763.763a.427.427,0,0,0,.6-.6l-.763-.763h1.079a.427.427,0,0,0,.427-.427h0A.427.427,0,0,0,983.957,884.679Z" transform="translate(-504.835 -527.89)" fill="#2c326c"/>
    <g id="Group_9939" data-name="Group 9939" transform="translate(560.305 357.28)">
      <g id="Group_9938" data-name="Group 9938">
        <path id="Path_56581" data-name="Path 56581" d="M2036.042,928.214a.948.948,0,0,1-.294-.047.927.927,0,0,1-.626-.7l-1.726-8.146a.936.936,0,0,1,1.206-1.084l7.918,2.578a.936.936,0,0,1,.336,1.586h0l-6.192,5.568A.928.928,0,0,1,2036.042,928.214Zm-1.732-9.346a.262.262,0,0,0-.173.068.257.257,0,0,0-.081.249l1.726,8.146a.262.262,0,0,0,.431.14l6.192-5.568a.262.262,0,0,0-.094-.443l-7.918-2.578A.267.267,0,0,0,2034.31,918.868Zm8.321,3.286h0Z" transform="translate(-2033.066 -917.883)" fill="#fbca0c"/>
        <path id="Path_56582" data-name="Path 56582" d="M2032.56,925.039a1.257,1.257,0,0,1-.39-.062,1.233,1.233,0,0,1-.833-.926l-1.726-8.146a1.246,1.246,0,0,1,1.6-1.443l7.918,2.578a1.246,1.246,0,0,1,.447,2.111l-6.192,5.568A1.24,1.24,0,0,1,2032.56,925.039Zm-1.732-10.02a.627.627,0,0,0-.61.757l1.726,8.146a.627.627,0,0,0,1.032.336l6.174-5.552v-.075l-.019.018-6.192,5.568a.571.571,0,0,1-.941-.307l-1.726-8.146a.573.573,0,0,1,.557-.691.579.579,0,0,1,.18.029l7.917,2.578a.572.572,0,0,1,.224.95v.075l.018-.016a.627.627,0,0,0-.225-1.062l-7.918-2.578A.631.631,0,0,0,2030.828,915.019Zm.067.7,1.691,7.984,6.068-5.457Zm-.079-.026Z" transform="translate(-2029.583 -914.399)" fill="#fbca0c"/>
      </g>
    </g>
    <g id="Group_9940" data-name="Group 9940" transform="translate(477.487 458.692)">
      <circle id="Ellipse_3464" data-name="Ellipse 3464" cx="4.137" cy="4.137" r="4.137" transform="matrix(0.16, -0.987, 0.987, 0.16, 0, 8.167)" fill="#2c326c"/>
    </g>
    <g id="Group_9942" data-name="Group 9942" transform="translate(547.984 462.597)">
      <g id="Group_9941" data-name="Group 9941" transform="translate(0 0)">
        <path id="Path_56583" data-name="Path 56583" d="M1886.2,2213.1a.336.336,0,0,1-.129-.051l-3.324-2.182a.338.338,0,0,1-.1-.467l2.182-3.324a.337.337,0,0,1,.467-.1l3.324,2.182a.337.337,0,0,1,.1.467l-2.182,3.324a.337.337,0,0,1-.338.148Zm-2.8-2.612,2.76,1.812,1.812-2.76-2.76-1.812Z" transform="translate(-1882.29 -2206.61)" fill="#fbca0c"/>
        <path id="Path_56584" data-name="Path 56584" d="M1882.783,2209.928a.646.646,0,0,1-.108-.01h0a.63.63,0,0,1-.247-.1l-3.324-2.182a.647.647,0,0,1-.186-.9l2.182-3.324a.647.647,0,0,1,.9-.186l3.324,2.182a.647.647,0,0,1,.186.9l-2.182,3.324a.644.644,0,0,1-.409.279A.666.666,0,0,1,1882.783,2209.928Zm-1.141-6.181h-.006a.026.026,0,0,0-.017.012l-2.182,3.324a.028.028,0,0,0,.008.038l3.324,2.182.01,0h.01a.026.026,0,0,0,.017-.012l2.183-3.324a.028.028,0,0,0,0-.021.027.027,0,0,0-.012-.018l-3.324-2.182A.027.027,0,0,0,1881.641,2203.747Zm1.134,5.5-3.278-2.152,2.152-3.278,3.278,2.152Zm-2.42-2.33,2.242,1.472,1.472-2.242-2.242-1.472Z" transform="translate(-1878.812 -2203.127)" fill="#fbca0c"/>
      </g>
    </g>
    <g id="Group_9943" data-name="Group 9943" transform="translate(491.169 399.466)">
      <path id="Path_56585" data-name="Path 56585" d="M1192.186,1444.168l-2.479-4.106c-.194.019-.407.019-.62.019h-3.215v4.086h-2.285v-13.556h5.5c3.467,0,5.461,1.685,5.461,4.629a4.355,4.355,0,0,1-2.808,4.4l3.041,4.532Zm-3.1-6.139c2.092,0,3.292-.891,3.292-2.731,0-1.782-1.2-2.634-3.292-2.634h-3.215v5.365Z" transform="translate(-1183.587 -1430.612)" fill="#08144e"/>
      <path id="Path_56586" data-name="Path 56586" d="M1364.607,1430.612v2.053h-7.4v3.68h6.623v2.033h-6.623v3.738h7.63v2.053h-9.916v-13.556Z" transform="translate(-1340.922 -1430.612)" fill="#08144e"/>
      <path id="Path_56587" data-name="Path 56587" d="M1519.484,1430.612l-.019,2.053h-6.8v3.912h6.159v2.033h-6.159v5.558h-2.285v-13.556Z" transform="translate(-1483.676 -1430.612)" fill="#08144e"/>
      <path id="Path_56588" data-name="Path 56588" d="M1656.329,1430.612v2.053h-7.4v3.68h6.623v2.033h-6.623v3.738h7.63v2.053h-9.916v-13.556Z" transform="translate(-1608.804 -1430.612)" fill="#08144e"/>
      <path id="Path_56589" data-name="Path 56589" d="M1810.7,1444.168l-2.479-4.106c-.194.019-.407.019-.62.019h-3.215v4.086H1802.1v-13.556h5.5c3.467,0,5.461,1.685,5.461,4.629a4.354,4.354,0,0,1-2.808,4.4l3.041,4.532Zm-3.1-6.139c2.092,0,3.292-.891,3.292-2.731,0-1.782-1.2-2.634-3.292-2.634h-3.215v5.365Z" transform="translate(-1751.558 -1430.612)" fill="#08144e"/>
      <path id="Path_56590" data-name="Path 56590" d="M2033.484,1441.109h-6.836l-1.3,3.06h-2.382l5.984-13.556h2.343l5.926,13.556h-2.44Zm-.871-2.033-2.557-6.023-2.556,6.023Z" transform="translate(-1954.373 -1430.612)" fill="#08144e"/>
    </g>
    <g id="Group_9944" data-name="Group 9944" transform="translate(491.169 417.927)">
      <path id="Path_56591" data-name="Path 56591" d="M1194.122,1656.515l-.022,2.376h-7.868v4.528h7.128v2.354h-7.128v6.433h-2.645v-15.69Z" transform="translate(-1183.587 -1656.515)" fill="#fff"/>
      <path id="Path_56592" data-name="Path 56592" d="M1351.254,1672.206l-2.869-4.752c-.224.022-.471.022-.717.022h-3.721v4.73H1341.3v-15.69h6.366c4.012,0,6.321,1.95,6.321,5.357a5.041,5.041,0,0,1-3.25,5.088l3.519,5.245Zm-3.586-7.105c2.421,0,3.811-1.031,3.811-3.161,0-2.062-1.39-3.048-3.811-3.048h-3.721v6.209Z" transform="translate(-1328.413 -1656.515)" fill="#fff"/>
      <path id="Path_56593" data-name="Path 56593" d="M1542.257,1656.515v15.69h-2.645v-15.69Z" transform="translate(-1510.517 -1656.515)" fill="#fff"/>
      <path id="Path_56594" data-name="Path 56594" d="M1633.651,1656.515v2.376h-8.562v4.259h7.666v2.354h-7.666v4.326h8.831v2.376h-11.477v-15.69Z" transform="translate(-1586.579 -1656.515)" fill="#fff"/>
      <path id="Path_56595" data-name="Path 56595" d="M1804.975,1656.515l8.406,11.275v-11.275h2.6v15.69h-2.6l-8.361-11.252v11.252h-2.645v-15.69Z" transform="translate(-1751.807 -1656.515)" fill="#fff"/>
      <path id="Path_56596" data-name="Path 56596" d="M2034.158,1664.36c0,4.528-3.43,7.845-8.182,7.845h-6.366v-15.69h6.433C2030.75,1656.515,2034.158,1659.81,2034.158,1664.36Zm-2.667.023a5.349,5.349,0,0,0-5.492-5.492h-3.743v10.938h3.856A5.26,5.26,0,0,0,2031.49,1664.383Z" transform="translate(-1951.289 -1656.515)" fill="#fff"/>
    </g>
    <g id="Group_9948" data-name="Group 9948" transform="translate(429.548 370.181)">
      <g id="Group_9947" data-name="Group 9947" transform="translate(0)">
        <g id="Group_9946" data-name="Group 9946">
          <path id="Path_56597" data-name="Path 56597" d="M447.847,1173.57a.8.8,0,0,1-.189-.023,2.212,2.212,0,0,1,1.048-4.3.8.8,0,0,1-.377,1.548.619.619,0,0,0-.294,1.2.8.8,0,0,1-.188,1.571Z" transform="translate(-444.627 -1161.264)" fill="#2c326c"/>
          <path id="Path_56598" data-name="Path 56598" d="M439.644,1207.226a.8.8,0,0,1-.189-.023,2.212,2.212,0,1,1,1.048-4.3.8.8,0,0,1-.377,1.548.619.619,0,1,0-.293,1.2.8.8,0,0,1-.188,1.57Z" transform="translate(-437.094 -1192.169)" fill="#2c326c"/>
          <g id="Group_9945" data-name="Group 9945">
            <path id="Path_56599" data-name="Path 56599" d="M473.325,1085.147a.8.8,0,0,1-.189-.023l-5.715-1.394a.8.8,0,0,1-.572-.538l-1.8-5.811a.8.8,0,0,1-.013-.425l.57-2.338a.619.619,0,0,0-1.2-.293.8.8,0,0,1-.033.1,11.688,11.688,0,0,0-.818,4.573l.016.719a.8.8,0,0,1-.985.791l-6.041-1.473a.619.619,0,1,0-.294,1.2.8.8,0,0,1-.377,1.547,2.212,2.212,0,0,1,1.048-4.3l5.036,1.228a13.261,13.261,0,0,1,.914-4.831A2.212,2.212,0,0,1,467.15,1075l-.518,2.123,1.6,5.17,5.276,1.287a.8.8,0,0,1-.188,1.57Z" transform="translate(-452.166 -1072.26)" fill="#2c326c"/>
            <path id="Path_56600" data-name="Path 56600" d="M448.781,1243.867a.809.809,0,0,1-.189-.023l-4.783-1.167a2.214,2.214,0,0,1-1.853.8l-7.794-1.9-2.925-.712a2.212,2.212,0,1,1,1.048-4.3.8.8,0,1,1-.377,1.548.619.619,0,1,0-.294,1.2l2.925.712,7.678,1.873a3.425,3.425,0,0,0,.739-.637.8.8,0,0,1,.785-.246l5.228,1.275a.8.8,0,0,1-.188,1.57Zm-6.617-1.94Z" transform="translate(-429.548 -1223.083)" fill="#2c326c"/>
          </g>
        </g>
      </g>
    </g>
    <g id="Group_9950" data-name="Group 9950" transform="translate(596.311 346.467)">
      <path id="Path_56601" data-name="Path 56601" d="M2573.41,1041.778a.8.8,0,0,1-.651-.338l-4.551-6.452a.8.8,0,1,1,1.3-.918l4.191,5.942,1.811-.71-.388-.549a.8.8,0,0,1-.772-.328l-3.009-4.266a.8.8,0,0,1,1.3-.918l2.661,3.773a.8.8,0,0,1,.772.328l1.32,1.872a.8.8,0,0,1-.36,1.2l-3.338,1.309A.8.8,0,0,1,2573.41,1041.778Z" transform="translate(-2560.064 -1012.405)" fill="#2c326c"/>
      <path id="Path_56602" data-name="Path 56602" d="M2556.834,1000.465a.8.8,0,0,1-.651-.337l-.994-1.409a.8.8,0,0,1,.192-1.11l3.424-2.415a.8.8,0,0,1,1.11.192l1.988,2.818a.8.8,0,0,1-.474,1.236l-4.418,1.006A.8.8,0,0,1,2556.834,1000.465Zm.116-2.014.227.322,2.739-.624-.844-1.2Z" transform="translate(-2548.109 -977.644)" fill="#2c326c"/>
      <g id="Group_9949" data-name="Group 9949" transform="translate(0 1.763)">
        <path id="Path_56603" data-name="Path 56603" d="M2474.181,825.939a.8.8,0,0,1-.651-.337l-3.2-4.537a.8.8,0,0,1,.192-1.11l7.036-4.963,7.258-10.979a.8.8,0,0,1,1.329.878L2478.8,816a.793.793,0,0,1-.205.212l-6.508,4.59,2.282,3.236,6.506-4.589a.8.8,0,0,1,.268-.122l12.925-3.19a.8.8,0,1,1,.382,1.547l-12.78,3.154-7.034,4.961A.8.8,0,0,1,2474.181,825.939Z" transform="translate(-2470.184 -803.656)" fill="#2c326c"/>
      </g>
      <path id="Path_56604" data-name="Path 56604" d="M2656.021,798.157a1.248,1.248,0,0,1-.212-.018,1.224,1.224,0,0,1-.8-.5l-8.979-12.731a1.232,1.232,0,0,1,.3-1.717l1.25-.881a1.233,1.233,0,0,1,1.717.3l8.979,12.731a1.232,1.232,0,0,1-.3,1.716h0l-1.25.881A1.223,1.223,0,0,1,2656.021,798.157Zm-8.479-13.876,8.563,12.141.659-.465-8.563-12.141Zm9.976,12.119h0Zm-.459-.651h0Z" transform="translate(-2631.455 -782.082)" fill="#2c326c"/>
      <path id="Path_56605" data-name="Path 56605" d="M2520.228,975.7a.8.8,0,0,1-.651-.337l-3.547-5.028a.8.8,0,0,1,1.3-.918l3.546,5.028a.8.8,0,0,1-.65,1.256Z" transform="translate(-2512.15 -953.798)" fill="#2c326c"/>
    </g>
    <g id="Group_9952" data-name="Group 9952" transform="translate(618.229 343.606)">
      <path id="Path_56606" data-name="Path 56606" d="M2763.957,802a.8.8,0,0,1-.46-1.447l4.468-3.151a.8.8,0,1,1,.918,1.3l-4.468,3.151A.792.792,0,0,1,2763.957,802Z" transform="translate(-2761.135 -793.154)" fill="#fbca0c"/>
      <g id="Group_9951" data-name="Group 9951">
        <path id="Path_56607" data-name="Path 56607" d="M2739.176,753.051a.8.8,0,0,1-.653-1.251l3.048-4.381a.8.8,0,1,1,1.307.91l-3.048,4.381A.8.8,0,0,1,2739.176,753.051Z" transform="translate(-2738.38 -747.078)" fill="#fbca0c"/>
        <path id="Path_56608" data-name="Path 56608" d="M2788.733,856.8a.8.8,0,0,1-.208-1.565l5.15-1.4a.8.8,0,1,1,.418,1.537l-5.15,1.4A.8.8,0,0,1,2788.733,856.8Z" transform="translate(-2783.887 -845.083)" fill="#fbca0c"/>
      </g>
    </g>
    <path id="Path_56609" data-name="Path 56609" d="M1734.8,647.317a4.745,4.745,0,0,1-2.143-.512.8.8,0,1,1,.722-1.42,3.1,3.1,0,0,0,1.421.339,3.137,3.137,0,1,0-2.041-5.521.8.8,0,1,1-1.037-1.21,4.73,4.73,0,1,1,3.077,8.323Z" transform="translate(-1195.507 -299.175)" fill="#2c326c"/>
    <path id="Path_56610" data-name="Path 56610" d="M1718.271,766.1a.8.8,0,0,1-.8-.8,5,5,0,0,0-8.916-3.1.8.8,0,0,1-1.25-.988,6.588,6.588,0,0,1,11.758,4.084A.8.8,0,0,1,1718.271,766.1Z" transform="translate(-1173.184 -410.159)" fill="#2c326c"/>
    <path id="Path_56611" data-name="Path 56611" d="M1479.256,647.317a4.73,4.73,0,1,1,0-9.461,4.686,4.686,0,0,1,2.891.986.8.8,0,1,1-.974,1.26,3.106,3.106,0,0,0-1.917-.654,3.137,3.137,0,0,0,0,6.275,3.1,3.1,0,0,0,1.4-.331.8.8,0,0,1,.714,1.424A4.683,4.683,0,0,1,1479.256,647.317Z" transform="translate(-959.581 -299.175)" fill="#2c326c"/>
    <path id="Path_56612" data-name="Path 56612" d="M1452.592,766.1a.8.8,0,0,1-.8-.8,6.588,6.588,0,0,1,11.917-3.873.8.8,0,1,1-1.288.938,5,5,0,0,0-9.037,2.936A.8.8,0,0,1,1452.592,766.1Z" transform="translate(-938.708 -410.159)" fill="#2c326c"/>
    <g id="Group_9953" data-name="Group 9953" transform="translate(520.076 338.433)">
      <path id="Path_56613" data-name="Path 56613" d="M1577.766,648.114a6.647,6.647,0,1,1,6.647-6.647A6.655,6.655,0,0,1,1577.766,648.114Zm0-11.7a5.054,5.054,0,1,0,5.054,5.054A5.06,5.06,0,0,0,1577.766,636.413Z" transform="translate(-1568.356 -634.82)" fill="#2c326c"/>
      <path id="Path_56614" data-name="Path 56614" d="M1555.334,814.319a.8.8,0,0,1-.8-.8,7.817,7.817,0,0,0-15.634,0,.8.8,0,0,1-1.593,0,9.41,9.41,0,0,1,18.82,0A.8.8,0,0,1,1555.334,814.319Z" transform="translate(-1537.311 -790.278)" fill="#2c326c"/>
    </g>
    <path id="Path_56615" data-name="Path 56615" d="M1455.317,332.839a.8.8,0,0,1-.713-.442l-2.581-5.195h-3.978l-1.848,3.2a.8.8,0,0,1-1.38,0l-1.849-3.2a5.338,5.338,0,0,1-5.195-5.33v-8.837a5.338,5.338,0,0,1,5.332-5.332H1467.7a5.338,5.338,0,0,1,5.332,5.332v8.837a5.338,5.338,0,0,1-5.332,5.332h-.031l-1.849,3.2a.8.8,0,0,1-1.379,0l-1.848-3.2h-3.978l-2.581,5.195A.8.8,0,0,1,1455.317,332.839Zm-7.732-7.23h4.932a.8.8,0,0,1,.713.442l2.087,4.2,2.087-4.2a.8.8,0,0,1,.713-.442h4.931a.8.8,0,0,1,.69.4l1.388,2.405,1.389-2.405a.8.8,0,0,1,.69-.4h.491a3.743,3.743,0,0,0,3.739-3.739v-8.837a3.743,3.743,0,0,0-3.739-3.739h-24.591a3.744,3.744,0,0,0-3.739,3.739v8.837a3.744,3.744,0,0,0,3.739,3.739h.323a.8.8,0,0,1,.69.4l1.389,2.4,1.388-2.4A.8.8,0,0,1,1447.585,325.609Z" transform="translate(-925.832 4)" fill="#fbca0c"/>
  </g>
</svg>
