<svg xmlns="http://www.w3.org/2000/svg" width="279.184" height="160.533" viewBox="0 0 279.184 176.533">
  <g id="Group_127" data-name="Group 127" transform="translate(0 0)">
    <path id="Path_329" data-name="Path 329" d="M394.427,222.63c-1.352,11.586-4.162,20.887-8.019,28.306-5.132,9.884-13.91,13.867-21.752,18.034a49.593,49.593,0,0,1-7.046,3.064c-14.27,4.952-30.241,3.639-42.786,1.024a168.667,168.667,0,0,0-26.71-3.377q-3.841-.173-7.69-.172c-3.957.005-75.2,1.357-92.549-33.761-4.283-8.663-7.218-19.245-8.273-32.145-2.984-36.468,13.418-60.42,34.575-76.075C254.2,97.913,309.058,99.155,348.49,129.55,374.756,149.8,399.348,180.437,394.427,222.63Z" transform="translate(-147.624 -106.019)" fill="#3f3d56"/>
    <path id="Path_330" data-name="Path 330" d="M411.393,383.232a47.248,47.248,0,0,1-19.956,20.6,49.593,49.593,0,0,1-7.046,3.064c-14.27,4.952-30.241,3.639-42.786,1.024a168.686,168.686,0,0,0-26.71-3.377q-3.841-.173-7.69-.172-5.935.008-11.868.441c-25.7,1.889-65.131-1.65-82.477-36.769l43.4-84.063,16.153,41.472,5.155,13.238,14.208-19.5,7.336-10.067,33.41,38.3,9.443-20.854,65.377,53.353,3.646,2.974Z" transform="translate(-172.609 -238.315)" fill="#f2f2f2"/>
    <path id="Path_331" data-name="Path 331" d="M302,240.588l6.672-14.626,9.238,21.3-7.955-15.4Z" transform="translate(-224.506 -167.98)" opacity="0.1"/>
    <path id="Path_332" data-name="Path 332" d="M502.365,563.043q-3.841-.173-7.69-.172l-29.635-65.68Z" transform="translate(-360.079 -396.815)" opacity="0.1"/>
    <path id="Path_333" data-name="Path 333" d="M464.411,298.666l7.336-5.7,33.358,38.49-33.872-32.845Z" transform="translate(-345.242 -217.787)" opacity="0.1"/>
    <path id="Path_334" data-name="Path 334" d="M738.113,587.652a49.589,49.589,0,0,1-7.046,3.064L679.2,531.251Z" transform="translate(-519.285 -422.135)" opacity="0.1"/>
    <circle id="Ellipse_130" data-name="Ellipse 130" cx="0.77" cy="0.77" r="0.77" transform="translate(122.913 25.394)" fill="#f2f2f2"/>
    <circle id="Ellipse_131" data-name="Ellipse 131" cx="0.77" cy="0.77" r="0.77" transform="translate(101.615 51.824)" fill="#f2f2f2"/>
    <circle id="Ellipse_132" data-name="Ellipse 132" cx="0.513" cy="0.513" r="0.513" transform="translate(153.962 56.699)" fill="#f2f2f2"/>
    <circle id="Ellipse_133" data-name="Ellipse 133" cx="0.513" cy="0.513" r="0.513" transform="translate(46.188 68.247)" fill="#f2f2f2"/>
    <circle id="Ellipse_134" data-name="Ellipse 134" cx="0.513" cy="0.513" r="0.513" transform="translate(157.041 24.881)" fill="#f2f2f2"/>
    <circle id="Ellipse_135" data-name="Ellipse 135" cx="0.513" cy="0.513" r="0.513" transform="translate(188.86 49.515)" fill="#f2f2f2"/>
    <circle id="Ellipse_136" data-name="Ellipse 136" cx="0.513" cy="0.513" r="0.513" transform="translate(220.165 88.518)" fill="#f2f2f2"/>
    <path id="Path_335" data-name="Path 335" d="M300.8,119.17h-.708v-.708h-.38v.708H299v.38h.708v.708h.38v-.708h.708Z" transform="translate(-222.276 -88.064)" fill="#f2f2f2"/>
    <path id="Path_336" data-name="Path 336" d="M842.8,422.17h-.708v-.708h-.38v.708H841v.38h.708v.708h.38v-.708h.708Z" transform="translate(-625.197 -313.314)" fill="#f2f2f2"/>
    <path id="Path_337" data-name="Path 337" d="M335.184,716.322c0,4.251-62.5,18.989-139.592,18.989S56,720.573,56,716.322s62.5,3.592,139.592,3.592S335.184,712.07,335.184,716.322Z" transform="translate(-56 -558.777)" fill="#3f3d56"/>
    <path id="Path_338" data-name="Path 338" d="M335.184,716.322c0,4.251-62.5,18.989-139.592,18.989S56,720.573,56,716.322s62.5,3.592,139.592,3.592S335.184,712.07,335.184,716.322Z" transform="translate(-56 -558.777)" opacity="0.1"/>
    <ellipse id="Ellipse_137" data-name="Ellipse 137" cx="139.592" cy="7.698" rx="139.592" ry="7.698" transform="translate(0 149.846)" fill="#3f3d56"/>
    <path id="Path_339" data-name="Path 339" d="M574.936,606.615c0,8.5-3.791,6.159-8.468,6.159S558,615.118,558,606.615s8.468-24.634,8.468-24.634S574.936,598.112,574.936,606.615Z" transform="translate(-429.185 -459.848)" fill="#ff6584"/>
    <path id="Path_340" data-name="Path 340" d="M583.7,658.221c0,3.865-1.723,2.8-3.849,2.8s-3.849,1.066-3.849-2.8,3.849-11.2,3.849-11.2S583.7,654.356,583.7,658.221Z" transform="translate(-442.567 -508.2)" opacity="0.1"/>
    <rect id="Rectangle_215" data-name="Rectangle 215" width="23.607" height="4.619" rx="2.309" transform="translate(125.479 155.235)" fill="#2f2e41"/>
    <rect id="Rectangle_216" data-name="Rectangle 216" width="23.607" height="4.619" rx="2.309" transform="translate(125.479 150.616)" fill="#2f2e41"/>
    <path id="Path_341" data-name="Path 341" d="M193,596.547c0,14.2,8.909,25.693,19.919,25.693" transform="translate(-157.845 -470.676)" fill="#3f3d56"/>
    <path id="Path_342" data-name="Path 342" d="M270.626,621.4c0-14.361,9.942-25.981,22.228-25.981" transform="translate(-215.552 -469.84)" fill="#6c63ff"/>
    <path id="Path_343" data-name="Path 343" d="M221.125,601.564c0,13.49,5.681,24.405,12.7,24.405" transform="translate(-178.753 -474.406)" fill="#94e6fe"/>
    <path id="Path_344" data-name="Path 344" d="M270.626,600.494c0-18.35,11.491-33.2,25.693-33.2" transform="translate(-215.552 -448.931)" fill="#3f3d56"/>
    <path id="Path_345" data-name="Path 345" d="M254.295,692.957s2.825-.087,3.676-.693,4.345-1.33,4.557-.358,4.245,4.836,1.056,4.861-7.41-.5-8.26-1.014S254.295,692.957,254.295,692.957Z" transform="translate(-203.412 -541.212)" fill="#a8a8a8"/>
    <path id="Path_346" data-name="Path 346" d="M263.641,700.84c-3.189.026-7.41-.5-8.26-1.014-.647-.394-.9-1.808-.991-2.461l-.094,0s.179,2.278,1.029,2.8,5.071,1.04,8.26,1.014c.921-.007,1.239-.335,1.221-.82C264.677,700.652,264.326,700.835,263.641,700.84Z" transform="translate(-203.412 -545.624)" opacity="0.2"/>
    <path id="Path_347" data-name="Path 347" d="M777.429,633.081c0,9.758,6.122,17.655,13.687,17.655" transform="translate(-592.308 -497.835)" fill="#3f3d56"/>
    <path id="Path_348" data-name="Path 348" d="M830.769,650.16c0-9.868,6.832-17.853,15.274-17.853" transform="translate(-631.961 -497.26)" fill="#6c63ff"/>
    <path id="Path_349" data-name="Path 349" d="M796.755,636.528c0,9.269,3.9,16.77,8.728,16.77" transform="translate(-606.675 -500.398)" fill="#6c63ff"/>
    <path id="Path_350" data-name="Path 350" d="M830.769,635.793c0-12.609,7.9-22.812,17.655-22.812" transform="translate(-631.961 -482.893)" fill="#3f3d56"/>
    <path id="Path_351" data-name="Path 351" d="M819.548,699.328a7.117,7.117,0,0,0,2.526-.476c.585-.417,2.986-.914,3.131-.246s2.917,3.323.726,3.34a18.564,18.564,0,0,1-5.676-.7C819.671,700.894,819.548,699.328,819.548,699.328Z" transform="translate(-623.619 -546.304)" fill="#a8a8a8"/>
    <path id="Path_352" data-name="Path 352" d="M825.969,704.745a18.558,18.558,0,0,1-5.676-.7c-.445-.271-.622-1.243-.681-1.691l-.065,0s.123,1.565.707,1.921a18.566,18.566,0,0,0,5.676.7c.633-.005.851-.23.839-.564C826.682,704.616,826.44,704.742,825.969,704.745Z" transform="translate(-623.619 -549.335)" opacity="0.2"/>
    <path id="Path_353" data-name="Path 353" d="M949.813,717.5s2.915-.444,3.721-1.178,4.334-1.921,4.674-.941,5,4.477,1.7,4.9-7.737.413-8.682-.017S949.813,717.5,949.813,717.5Z" transform="translate(-720.458 -558.742)" fill="#a8a8a8"/>
    <path id="Path_354" data-name="Path 354" d="M959.927,727.1c-3.3.426-7.737.413-8.682-.017-.72-.327-1.164-1.76-1.335-2.425l-.1.016s.47,2.337,1.415,2.767,5.382.443,8.682.017c.953-.123,1.241-.5,1.162-1C960.977,726.774,960.636,727.008,959.927,727.1Z" transform="translate(-720.458 -565.913)" opacity="0.2"/>
    <path id="Path_355" data-name="Path 355" d="M670.26,717.806s2.46-.374,3.14-.994,3.658-1.622,3.945-.794,4.221,3.778,1.436,4.138-6.53.349-7.327-.014S670.26,717.806,670.26,717.806Z" transform="translate(-512.639 -559.257)" fill="#a8a8a8"/>
    <path id="Path_356" data-name="Path 356" d="M678.8,725.9c-2.785.359-6.53.349-7.327-.014-.607-.276-.982-1.485-1.126-2.046l-.082.013s.4,1.973,1.194,2.335,4.542.374,7.327.014c.8-.1,1.047-.423.981-.846C679.681,725.631,679.393,725.828,678.8,725.9Z" transform="translate(-512.639 -565.309)" opacity="0.2"/>
    <path id="Path_357" data-name="Path 357" d="M178.389,714.368a7.1,7.1,0,0,0,2.445-.774c.529-.483,2.848-1.262,3.071-.618s3.286,2.942,1.118,3.221a18.518,18.518,0,0,1-5.7-.011C178.7,715.9,178.389,714.368,178.389,714.368Z" transform="translate(-146.984 -557.047)" fill="#a8a8a8"/>
    <path id="Path_358" data-name="Path 358" d="M185.034,720.673a18.51,18.51,0,0,1-5.7-.011c-.473-.215-.765-1.156-.877-1.593l-.064.01s.309,1.536.93,1.818a18.518,18.518,0,0,0,5.7.011c.626-.081.815-.33.764-.659C185.723,720.46,185.5,720.613,185.034,720.673Z" transform="translate(-146.983 -561.759)" opacity="0.2"/>
    <path id="Path_359" data-name="Path 359" d="M300.849,679.985c0,7.755-10.809,5.356-24.044,5.356s-23.883,2.4-23.883-5.356,10.808-9.441,24.042-9.441S300.849,672.23,300.849,679.985Z" transform="translate(-202.392 -525.685)" opacity="0.1"/>
    <path id="Path_360" data-name="Path 360" d="M300.849,672.545c0,7.755-10.809,5.356-24.044,5.356s-23.883,2.4-23.883-5.356,10.808-9.441,24.042-9.441S300.849,664.79,300.849,672.545Z" transform="translate(-202.392 -520.154)" fill="#3f3d56"/>
    <path id="Path_361" data-name="Path 361" d="M431.959,545.448a11.6,11.6,0,0,0-1.811,1.147,3.893,3.893,0,0,0-1.259,1.7,15.732,15.732,0,0,1-.78-2.3,37.915,37.915,0,0,0-1.593-4.148,5.512,5.512,0,0,0,2.5-1.92,12.266,12.266,0,0,1,3.11,4.131c.106.28.413.579.484.83C432.715,545.243,432.228,545.3,431.959,545.448Z" transform="translate(-331.441 -428.585)" fill="#ffbfc5"/>
    <path id="Path_362" data-name="Path 362" d="M486.275,677.69a11.386,11.386,0,0,1,3.7,1.98.386.386,0,0,1,.168.228c.028.213-.257.3-.463.36-.607.175-1,.745-1.443,1.192s-1.166.8-1.688.44a1.638,1.638,0,0,1-.354-.373l-2.2-2.877a13.361,13.361,0,0,1,2.346-1.03" transform="translate(-374.167 -530.937)" fill="#f1f1f1"/>
    <path id="Path_363" data-name="Path 363" d="M493.785,679.188c.292.3.419.726.7,1.029a2.572,2.572,0,0,0,.652.453l1.686.928a4.876,4.876,0,0,0,.815.385,7.475,7.475,0,0,0,.968.2,7.021,7.021,0,0,1,1.365.4c.331.135.7.369.7.726a.79.79,0,0,1-.2.469,4.1,4.1,0,0,1-2.905,1.135,20.367,20.367,0,0,1-6.908-.117,2.948,2.948,0,0,1-1.214-.526,2.318,2.318,0,0,1-.561-2.432,1.316,1.316,0,0,1,.536-.8,2.82,2.82,0,0,1,1.21-.141,3.807,3.807,0,0,0,1.248-.4c.257-.116.554-.266.609-.572.051-.284-.282-.568-.212-.822C492.429,678.552,493.516,678.913,493.785,679.188Z" transform="translate(-377.715 -531.836)" fill="#575a89"/>
    <path id="Path_364" data-name="Path 364" d="M493.785,679.188c.292.3.419.726.7,1.029a2.572,2.572,0,0,0,.652.453l1.686.928a4.876,4.876,0,0,0,.815.385,7.475,7.475,0,0,0,.968.2,7.021,7.021,0,0,1,1.365.4c.331.135.7.369.7.726a.79.79,0,0,1-.2.469,4.1,4.1,0,0,1-2.905,1.135,20.367,20.367,0,0,1-6.908-.117,2.948,2.948,0,0,1-1.214-.526,2.318,2.318,0,0,1-.561-2.432,1.316,1.316,0,0,1,.536-.8,2.82,2.82,0,0,1,1.21-.141,3.807,3.807,0,0,0,1.248-.4c.257-.116.554-.266.609-.572.051-.284-.282-.568-.212-.822C492.429,678.552,493.516,678.913,493.785,679.188Z" transform="translate(-377.715 -531.836)" opacity="0.1"/>
    <path id="Path_365" data-name="Path 365" d="M508.105,710.262l.708.468a1.267,1.267,0,0,1,.515.508,1.169,1.169,0,0,1-.285,1.087,6.248,6.248,0,0,1-2.73,2.116,4.091,4.091,0,0,1-1.186.3.5.5,0,0,1-.276-.035c-.216-.114-.185-.423-.187-.667a2.936,2.936,0,0,0-1.024-1.8,2.4,2.4,0,0,1-.861-1.861,2.314,2.314,0,0,1,.61-1.089,4.535,4.535,0,0,1,.928-.876c.5-.327.677-.151,1.148.149Q506.792,709.4,508.105,710.262Z" transform="translate(-388.123 -553.7)" fill="#f1f1f1"/>
    <path id="Path_366" data-name="Path 366" d="M507.848,719.7a1.265,1.265,0,0,0,1.116-.252,2.84,2.84,0,0,0,.725-.932,7.807,7.807,0,0,0,.449-.988,2.111,2.111,0,0,1,.634-1.077,1.336,1.336,0,0,1,1.449.1,7.6,7.6,0,0,1,1.111,1.064,7.508,7.508,0,0,0,3.155,1.755,34.339,34.339,0,0,0,3.564.762,2.026,2.026,0,0,1,.686.221,1.382,1.382,0,0,1,.509,1.5,3.343,3.343,0,0,1-.888,1.422,3.556,3.556,0,0,1-1.18.914,3.747,3.747,0,0,1-1.2.226,20.324,20.324,0,0,1-5.9-.462,16.18,16.18,0,0,0-2.162-.432c-.445-.039-.893-.027-1.338-.057a7,7,0,0,1-2.552-.673.9.9,0,0,1-.465-.386.962.962,0,0,1-.034-.511l.3-2.587c.026-.225.1-.5.325-.54s.368.185.5.354a1.827,1.827,0,0,0,2.189.479" transform="translate(-390.167 -559.688)" fill="#575a89"/>
    <path id="Path_367" data-name="Path 367" d="M413.583,602.286c1.3-.146,2.8-.171,3.681.8a4.822,4.822,0,0,1,.888,2.2,14.322,14.322,0,0,0,1.406,3.745,19.729,19.729,0,0,1,1.23,2.188,15.639,15.639,0,0,1,.634,2.492,15.049,15.049,0,0,0,5.27,8.382,4.252,4.252,0,0,1-3.14,2.326,1.351,1.351,0,0,1-1.613-.439,21.7,21.7,0,0,1-1.719-2.105,30.717,30.717,0,0,1-4.86-8.118c-.363-1.051-.726-2.277-1.747-2.716a3.341,3.341,0,0,0-1.873-.066,25.477,25.477,0,0,0-4.109,1.055c-1.427.5-3.06,1.107-4.365.348a3.224,3.224,0,0,1-1.418-2.214,9.553,9.553,0,0,1,0-2.7,2.78,2.78,0,0,1,.285-1.168,2.528,2.528,0,0,1,.682-.691,14.1,14.1,0,0,1,3.844-2.071,24.36,24.36,0,0,1,4.113-.852Q412.17,602.445,413.583,602.286Z" transform="translate(-313.029 -474.886)" fill="#575a89"/>
    <path id="Path_368" data-name="Path 368" d="M413.583,602.286c1.3-.146,2.8-.171,3.681.8a4.822,4.822,0,0,1,.888,2.2,14.322,14.322,0,0,0,1.406,3.745,19.729,19.729,0,0,1,1.23,2.188,15.639,15.639,0,0,1,.634,2.492,15.049,15.049,0,0,0,5.27,8.382,4.252,4.252,0,0,1-3.14,2.326,1.351,1.351,0,0,1-1.613-.439,21.7,21.7,0,0,1-1.719-2.105,30.717,30.717,0,0,1-4.86-8.118c-.363-1.051-.726-2.277-1.747-2.716a3.341,3.341,0,0,0-1.873-.066,25.477,25.477,0,0,0-4.109,1.055c-1.427.5-3.06,1.107-4.365.348a3.224,3.224,0,0,1-1.418-2.214,9.553,9.553,0,0,1,0-2.7,2.78,2.78,0,0,1,.285-1.168,2.528,2.528,0,0,1,.682-.691,14.1,14.1,0,0,1,3.844-2.071,24.36,24.36,0,0,1,4.113-.852Q412.17,602.445,413.583,602.286Z" transform="translate(-313.029 -474.886)" opacity="0.1"/>
    <path id="Path_369" data-name="Path 369" d="M469.494,636.967a6.714,6.714,0,0,1,1.64,1.165,5.927,5.927,0,0,1,1.119,2.008,2.434,2.434,0,0,1,.194.774.885.885,0,0,1-.287.718,1.282,1.282,0,0,1-.81.2q-.565,0-1.129-.03a1.9,1.9,0,0,1-.668-.127,1.866,1.866,0,0,1-.521-.394,7.3,7.3,0,0,1-1.6-2.158c-.272-.6-.721-1.985-.292-2.61C467.584,635.868,469.027,636.7,469.494,636.967Z" transform="translate(-361.51 -500.209)" fill="#ffbfc5"/>
    <path id="Path_370" data-name="Path 370" d="M364.411,638.142a27.938,27.938,0,0,0,5.969.873,49.854,49.854,0,0,1,9.952,1.967,5.294,5.294,0,0,1,1.876.874,5.578,5.578,0,0,1,1.088,1.385,23.524,23.524,0,0,1,1.43,2.5c.365.779.642,1.6.982,2.386a16.774,16.774,0,0,0,5.232,6.7,2.241,2.241,0,0,1,.992,1.18,1.644,1.644,0,0,1-.155.969,6.043,6.043,0,0,1-2.6,2.633,2.737,2.737,0,0,0-1.2,1.045,9.478,9.478,0,0,1-3.87-3.572,24.921,24.921,0,0,0-3.212-4.222,11.276,11.276,0,0,1-1.673-1.632c-.687-.974-.873-2.306-1.8-3.057s-2.268-.654-3.462-.537a84.954,84.954,0,0,1-18.386-.2,9.258,9.258,0,0,1-3.672-1,3.4,3.4,0,0,1-1.8-3.144,3.493,3.493,0,0,1,2.237-2.594,12.543,12.543,0,0,1,3.509-.682A37.011,37.011,0,0,0,364.411,638.142Z" transform="translate(-274.623 -501.598)" fill="#575a89"/>
    <path id="Path_371" data-name="Path 371" d="M337.349,570.535c.151-1.007.542-1.96.787-2.948a18.073,18.073,0,0,1,.466-1.842l.02-.051a.428.428,0,0,0,.314-.18.529.529,0,0,0,.027-.277,1.877,1.877,0,0,1,.009-.3,21.08,21.08,0,0,1,1.314-1.948c.831-1.178,1.551-2.429,2.27-3.679.589-1.024,1.179-2.051,1.667-3.127.366-.807.673-1.641,1.078-2.43a15.722,15.722,0,0,1,6.808-6.359,85.123,85.123,0,0,1,8.36-3.518,1.674,1.674,0,0,1,.2.231c1.516,2.072,1.679,4.8,2.3,7.286a12.675,12.675,0,0,1,.588,3.044,9.348,9.348,0,0,1-1.459,4.3A23.432,23.432,0,0,1,359.8,562.4c-.429.531-.9,1.026-1.334,1.556a26.2,26.2,0,0,0-3.783,7.452c-.575,1.515-1.514,2.859-2.146,4.351a16.809,16.809,0,0,1-.688,1.734,1.81,1.81,0,0,1-1.458,1.023,2.132,2.132,0,0,1-.538-.084c-2.254-.58-4.142-2.071-6.015-3.452-.334-.247-.671-.491-1.021-.713s-.722-.426-1.09-.628l-.836-.458c-.913-.5-1.828-1-2.78-1.425a.784.784,0,0,1-.765-1.222Z" transform="translate(-265.112 -431.526)" fill="#6c63ff"/>
    <circle id="Ellipse_138" data-name="Ellipse 138" cx="5.194" cy="5.194" r="5.194" transform="translate(96.513 106.303)" fill="#ffbfc5"/>
    <path id="Path_372" data-name="Path 372" d="M433.052,512.368a1.231,1.231,0,0,0,1.279.6,1.792,1.792,0,0,0,1.194-.851,3.387,3.387,0,0,0,.442-1.432,1.5,1.5,0,0,0-.216-1.133,2.536,2.536,0,0,0-.659-.461,2.525,2.525,0,0,1-.82-.831c-.145-.24-.25-.5-.38-.751a2.783,2.783,0,0,0-2.4-1.594,10.4,10.4,0,0,0-1.431.285c-1.61.282-3.36-.57-4.854.095a4.523,4.523,0,0,0-1.016.677q-.631.52-1.213,1.1a2.51,2.51,0,0,0-.739,1.076c-.2.762.28,1.613-.027,2.34a3.53,3.53,0,0,1-.374.588c-.339.5.029,2.437-.008,3.037a1.127,1.127,0,0,0,.208.832,1.354,1.354,0,0,0,1.024.3l.674.008a.879.879,0,0,0,.3-.031.91.91,0,0,0,.339-.262c.561-.591.682-2.523,1.5-2.516a.6.6,0,0,1,.351.091c.148.108.191.307.3.457a.862.862,0,0,0,1,.234,2.243,2.243,0,0,0,.852-.688,3.358,3.358,0,0,1,.8-.761c.434-.253.925-.363,1.347-.649a11.474,11.474,0,0,0,.871-.85.758.758,0,0,1,.923-.052C432.8,511.486,432.824,511.913,433.052,512.368Z" transform="translate(-327.851 -403.301)" fill="#2f2e41"/>
    <path id="Path_373" data-name="Path 373" d="M403.5,566.482a8.272,8.272,0,0,1,3.619.291,1.915,1.915,0,0,1,1.009.6,1.829,1.829,0,0,1,.287.755,6.1,6.1,0,0,1-.438,3.679.483.483,0,0,0-.061.393.69.69,0,0,0,.2.2.715.715,0,0,1-.043,1.069c-.1.071-.224.132-.243.251s.1.23.2.321a1.153,1.153,0,0,1,.322,1.06,2.317,2.317,0,0,0-.1.47,1.5,1.5,0,0,0,.169.558,2.441,2.441,0,0,1,.156,1.234,1.354,1.354,0,0,0-.014.6,1.375,1.375,0,0,0,.229.363c.373.5.455,1.346-.086,1.661a1.251,1.251,0,0,1,.667,1.291c.323-.173.715.048.985.3a1.607,1.607,0,0,0,.911.571c.255.013.524-.12.757-.015.354.16.342.734.69.906.306.151.731-.1.991.125.091.076.137.195.224.275.2.181.506.1.774.093a1.822,1.822,0,0,1,1.545.943,4.624,4.624,0,0,1,.53,1.81,2.433,2.433,0,0,1-.02,1.04.893.893,0,0,1-.733.66,31.552,31.552,0,0,1-9.436-1.313,7.3,7.3,0,0,1-2.6-1.032,7.9,7.9,0,0,1-1.694-1.9,18.518,18.518,0,0,1-4.07-9.838,5.419,5.419,0,0,1-.133-1.629,4.594,4.594,0,0,1,.717-1.787,19.058,19.058,0,0,1,1.452-2.047A5.31,5.31,0,0,1,403.5,566.482Z" transform="translate(-310.298 -448.265)" opacity="0.1"/>
    <path id="Path_374" data-name="Path 374" d="M404.317,565.663a8.272,8.272,0,0,1,3.619.291,1.917,1.917,0,0,1,1.009.6,1.833,1.833,0,0,1,.287.755,6.105,6.105,0,0,1-.438,3.679.483.483,0,0,0-.061.393.69.69,0,0,0,.2.2.715.715,0,0,1-.043,1.069c-.1.071-.224.132-.243.25s.1.23.195.321a1.153,1.153,0,0,1,.322,1.06,2.315,2.315,0,0,0-.1.47,1.5,1.5,0,0,0,.169.558,2.443,2.443,0,0,1,.156,1.234,1.352,1.352,0,0,0-.014.6,1.371,1.371,0,0,0,.229.362c.373.5.455,1.346-.086,1.662a1.251,1.251,0,0,1,.667,1.291c.323-.173.715.048.985.3a1.606,1.606,0,0,0,.911.571c.255.013.524-.12.757-.015.354.16.342.734.69.906.306.151.731-.1.991.125.091.077.137.195.224.275.2.181.506.1.774.093a1.822,1.822,0,0,1,1.545.943,4.625,4.625,0,0,1,.53,1.81,2.431,2.431,0,0,1-.02,1.04.894.894,0,0,1-.733.66,31.552,31.552,0,0,1-9.436-1.314,7.3,7.3,0,0,1-2.6-1.031,7.9,7.9,0,0,1-1.694-1.9,18.518,18.518,0,0,1-4.07-9.838,5.422,5.422,0,0,1-.133-1.63,4.6,4.6,0,0,1,.717-1.787,19.085,19.085,0,0,1,1.452-2.047A5.31,5.31,0,0,1,404.317,565.663Z" transform="translate(-310.906 -447.656)" fill="#94e6fe"/>
  </g>
</svg>
