<svg xmlns="http://www.w3.org/2000/svg" width="378.041" height="400.723" viewBox="0 0 378.041 400.723">
  <g id="Group_7038" data-name="Group 7038" transform="translate(-184.342 -1269.773)">
    <g id="Group_6888" data-name="Group 6888" transform="translate(184.842 1432.106)">
      <path id="Path_48484" data-name="Path 48484" d="M253.362,0H49.028A17.028,17.028,0,0,0,32,17.028V221.362a17.028,17.028,0,0,0,17.028,17.028H253.362a17.028,17.028,0,0,0,17.028-17.028V17.028A17.028,17.028,0,0,0,253.362,0Z" transform="translate(12.272)" fill="rgba(52,127,149,0.1)"/>
      <g id="Group_6885" data-name="Group 6885" transform="translate(73.22 91.95)">
        <path id="Path_48485" data-name="Path 48485" d="M57.514,54H287.389a8.513,8.513,0,0,1,8.514,8.514v42.57a8.513,8.513,0,0,1-8.514,8.514H57.514A8.514,8.514,0,0,1,49,105.083V62.514A8.514,8.514,0,0,1,57.514,54Z" transform="translate(-49 -54)" fill="#fff" stroke="rgba(112,112,112,0.08)" stroke-width="1"/>
      </g>
      <path id="Path_48486" data-name="Path 48486" d="M148.381,62H104.108a5.108,5.108,0,1,0,0,10.217h44.272a5.108,5.108,0,1,0,0-10.217Z" transform="translate(59.359 43.572)" fill="#5ebcd8"/>
      <path id="Path_48487" data-name="Path 48487" d="M179.031,75H104.108a5.108,5.108,0,1,0,0,10.217h74.922a5.108,5.108,0,0,0,0-10.217Z" transform="translate(59.359 52.709)" fill="#dee9fc"/>
      <path id="Path_48488" data-name="Path 48488" d="M86.176,94.353A16.176,16.176,0,1,0,70,78.176,16.176,16.176,0,0,0,86.176,94.353Z" transform="translate(38.978 43.572)" fill="#347f95"/>
      <g id="Group_6886" data-name="Group 6886" transform="translate(0 165.17)">
        <path id="Path_48490" data-name="Path 48490" d="M14.514,97H244.389a8.513,8.513,0,0,1,8.514,8.514v42.57a8.511,8.511,0,0,1-8.514,8.514H14.514A8.513,8.513,0,0,1,6,148.083v-42.57A8.514,8.514,0,0,1,14.514,97Z" transform="translate(-6 -97)" fill="#fff" stroke="rgba(112,112,112,0.08)" stroke-width="1"/>
      </g>
      <path id="Path_48491" data-name="Path 48491" d="M105.381,105H61.108a5.108,5.108,0,1,0,0,10.217h44.272a5.108,5.108,0,1,0,0-10.217Z" transform="translate(29.139 73.792)" fill="#5ebcd8"/>
      <path id="Path_48492" data-name="Path 48492" d="M136.031,118H61.108a5.108,5.108,0,1,0,0,10.217h74.922a5.108,5.108,0,1,0,0-10.217Z" transform="translate(29.139 82.928)" fill="#dee9fc"/>
      <path id="Path_48493" data-name="Path 48493" d="M30.176,137.353A16.176,16.176,0,1,0,14,121.176,16.176,16.176,0,0,0,30.176,137.353Z" transform="translate(-0.378 73.792)" fill="#347f95"/>
      <g id="Group_6887" data-name="Group 6887" transform="translate(0 18.731)">
        <path id="Path_48495" data-name="Path 48495" d="M244.389,11H14.514A8.514,8.514,0,0,0,6,19.514v42.57A8.514,8.514,0,0,0,14.514,70.6H244.389a8.514,8.514,0,0,0,8.514-8.514V19.514A8.514,8.514,0,0,0,244.389,11Z" transform="translate(-6 -11)" fill="#fff" stroke="rgba(112,112,112,0.08)" stroke-width="1"/>
      </g>
      <path id="Path_48496" data-name="Path 48496" d="M103.381,19H59.108a5.108,5.108,0,0,0,0,10.217h44.272a5.108,5.108,0,0,0,0-10.217Z" transform="translate(27.734 13.353)" fill="#5ebcd8"/>
      <path id="Path_48497" data-name="Path 48497" d="M134.031,32H59.108a5.108,5.108,0,0,0,0,10.217h74.922a5.108,5.108,0,0,0,0-10.217Z" transform="translate(27.734 22.489)" fill="#dee9fc"/>
      <path id="Path_48498" data-name="Path 48498" d="M43.176,51.353A16.176,16.176,0,1,0,27,35.176,16.176,16.176,0,0,0,43.176,51.353Z" transform="translate(8.758 13.353)" fill="#347f95"/>
      <g id="Group_6894" data-name="Group 6894" transform="translate(44.683 41.689)">
        <path id="Path_47408" data-name="Path 47408" d="M0,0H14.5V14.5H0Z" fill="none"/>
        <path id="Path_47409" data-name="Path 47409" d="M6.233,11.5c-.168-.755-.927-1.373-1.239-1.78A4.912,4.912,0,0,1,5.448,3.27a4.383,4.383,0,0,1,6.17,0,4.912,4.912,0,0,1,.452,6.446A4.981,4.981,0,0,0,10.832,11.5h-4.6ZM10.8,12.683v.593a1.161,1.161,0,0,1-1.133,1.187H7.4a1.161,1.161,0,0,1-1.133-1.187v-.593ZM9.1,6.751V4.374L6.549,7.938H7.966v2.374l2.549-3.561H9.1Z" transform="translate(-1.281 -0.641)" fill="#fcfcfc"/>
      </g>
      <g id="Group_6896" data-name="Group 6896" transform="translate(117.904 114.498)">
        <path id="Path_47408-2" data-name="Path 47408" d="M0,0H14.5V14.5H0Z" fill="none"/>
        <path id="Path_47409-2" data-name="Path 47409" d="M6.233,11.5c-.168-.755-.927-1.373-1.239-1.78A4.912,4.912,0,0,1,5.448,3.27a4.383,4.383,0,0,1,6.17,0,4.912,4.912,0,0,1,.452,6.446A4.981,4.981,0,0,0,10.832,11.5h-4.6ZM10.8,12.683v.593a1.161,1.161,0,0,1-1.133,1.187H7.4a1.161,1.161,0,0,1-1.133-1.187v-.593ZM9.1,6.751V4.374L6.549,7.938H7.966v2.374l2.549-3.561H9.1Z" transform="translate(-1.281 -0.641)" fill="#fcfcfc"/>
      </g>
      <g id="Group_6897" data-name="Group 6897" transform="translate(22.547 187.717)">
        <path id="Path_47408-3" data-name="Path 47408" d="M0,0H14.5V14.5H0Z" fill="none"/>
        <path id="Path_47409-3" data-name="Path 47409" d="M6.233,11.5c-.168-.755-.927-1.373-1.239-1.78A4.912,4.912,0,0,1,5.448,3.27a4.383,4.383,0,0,1,6.17,0,4.912,4.912,0,0,1,.452,6.446A4.981,4.981,0,0,0,10.832,11.5h-4.6ZM10.8,12.683v.593a1.161,1.161,0,0,1-1.133,1.187H7.4a1.161,1.161,0,0,1-1.133-1.187v-.593ZM9.1,6.751V4.374L6.549,7.938H7.966v2.374l2.549-3.561H9.1Z" transform="translate(-1.281 -0.641)" fill="#fcfcfc"/>
      </g>
    </g>
    <g id="Group_6922" data-name="Group 6922" transform="translate(395.15 1269.773)">
      <g id="Group_6921" data-name="Group 6921" transform="translate(0 0)">
        <path id="Path_48548" data-name="Path 48548" d="M243.97,260.628H208.119L182.151,486.69H247.07L212.96,565.4l-33.9-13.8H143.209l7.728,109.743L309.154,577.4l-51.531-17.891,52.819-109.912-69.555-5.272L292,332.673Z" transform="translate(-143.209 -260.628)" fill="#c17c17"/>
        <path id="Path_48549" data-name="Path 48549" d="M208.119,260.628,146.3,486.69h64.918L177.109,565.4l-33.9-13.8,7.728,109.743L273.3,577.4l-64.01-4.625,65.3-123.178-69.555-5.272,51.113-111.649Z" transform="translate(-143.209 -260.628)" fill="#ffe38a"/>
      </g>
      <path id="Path_48550" data-name="Path 48550" d="M209.274,265.355,143.795,466.48h64.918L174.6,545.193l-26.826-1.425.654,97.373,125.514-84.263-67.158-4.317,65.3-123.177-69.555-5.272,51.113-111.649Z" transform="translate(-140.704 -240.418)" fill="#f7b541"/>
    </g>
  </g>
</svg>
