<svg xmlns="http://www.w3.org/2000/svg" width="24" height="24.455" viewBox="0 0 24 24.455">
  <g id="Component_35_2" data-name="Component 35 – 2" opacity="0.5">
    <g id="Group_6738" data-name="Group 6738">
      <g id="Rectangle_1977" data-name="Rectangle 1977" transform="translate(0 0.455)" fill="#fff" stroke="#707070" stroke-width="1" opacity="0">
        <rect width="24" height="24" stroke="none"/>
        <rect x="0.5" y="0.5" width="23" height="23" fill="none"/>
      </g>
      <g id="Group_6722" data-name="Group 6722">
        <path id="Path_47398" data-name="Path 47398" d="M0,0H24V24H0Z" fill="none"/>
        <path id="Path_47399" data-name="Path 47399" d="M12,18a6,6,0,1,1,6-6A6,6,0,0,1,12,18Zm0-2a4,4,0,1,0-4-4A4,4,0,0,0,12,16ZM11,1h2V4H11Zm0,19h2v3H11ZM3.515,4.929,4.929,3.515,7.05,5.636,5.636,7.05,3.515,4.93ZM16.95,18.364l1.414-1.414,2.121,2.121-1.414,1.414Zm2.121-14.85,1.414,1.415L18.364,7.05,16.95,5.636l2.121-2.121ZM5.636,16.95,7.05,18.364,4.929,20.485,3.515,19.071,5.636,16.95ZM23,11v2H20V11ZM4,11v2H1V11Z" fill="#fff"/>
        <g id="Group_6742" data-name="Group 6742">
          <path id="Path_47400" data-name="Path 47400" d="M0,0H24V24H0Z" fill="none"/>
          <path id="Path_47401" data-name="Path 47401" d="M12,18a6,6,0,1,1,6-6A6,6,0,0,1,12,18ZM11,1h2V4H11Zm0,19h2v3H11ZM3.515,4.929,4.929,3.515,7.05,5.636,5.636,7.05,3.515,4.93ZM16.95,18.364l1.414-1.414,2.121,2.121-1.414,1.414Zm2.121-14.85,1.414,1.415L18.364,7.05,16.95,5.636l2.121-2.121ZM5.636,16.95,7.05,18.364,4.929,20.485,3.515,19.071,5.636,16.95ZM23,11v2H20V11ZM4,11v2H1V11Z" fill="#fff"/>
        </g>
      </g>
    </g>
  </g>
</svg>
