<svg xmlns="http://www.w3.org/2000/svg" width="430" height="327.154" viewBox="0 0 430 327.154">
  <g id="Group_11910" data-name="Group 11910" transform="translate(-14159 315.873)">
    <g id="Group_10051" data-name="Group 10051" transform="translate(14159 -315.873)">
      <g id="Group_7896" data-name="Group 7896">
        <g id="Group_7895" data-name="Group 7895" transform="translate(42.463 17.709)">
          <g id="Group_7877" data-name="Group 7877">
            <circle id="Ellipse_3453" data-name="Ellipse 3453" cx="59.182" cy="59.182" r="59.182" fill="#fff9e6"/>
            <circle id="Ellipse_3454" data-name="Ellipse 3454" cx="38.407" cy="38.407" r="38.407" transform="translate(20.776 20.776)" fill="#ffeb9f"/>
          </g>
          <g id="Group_7894" data-name="Group 7894" transform="translate(6.857 65.434)">
            <g id="Group_7885" data-name="Group 7885" transform="translate(2.124)">
              <g id="Group_7884" data-name="Group 7884">
                <g id="Group_7879" data-name="Group 7879" transform="translate(0 65.402)">
                  <g id="Group_7878" data-name="Group 7878" transform="translate(63.944 109.58)">
                    <path id="Path_52823" data-name="Path 52823" d="M67.709,373.971,64.46,313.912h-8.9l-3.775,60.059Z" transform="translate(-51.786 -313.912)" fill="#79442b"/>
                    <path id="Path_52824" data-name="Path 52824" d="M57,363.212l.278-44.427a1.211,1.211,0,1,0-2.4,0l-2.214,44.427Z" transform="translate(-49.057 -303.152)" fill="#a35233"/>
                  </g>
                  <path id="Path_52825" data-name="Path 52825" d="M179.129,357.376a16.061,16.061,0,0,0-10.712-15.111A19.071,19.071,0,0,0,156.25,317.43a12.284,12.284,0,0,0,.18-1.789,12.445,12.445,0,0,0-12.448-12.448h-1.572a10.512,10.512,0,0,0,1.572-5.493,10.618,10.618,0,0,0-10.619-10.619H86.7a10.566,10.566,0,0,0-9.046,16.112H66.564a12.414,12.414,0,0,0-12.171,15.025,19.326,19.326,0,0,0-5.722,31.1H47.16a9.152,9.152,0,1,0,0,18.3h2.614a10.887,10.887,0,0,0,7.433,17.443,13.734,13.734,0,0,0-.163,1.6,13.914,13.914,0,0,0,13.914,13.91h.073a8.385,8.385,0,0,0,8.348,8.058h63.5a8.42,8.42,0,0,0,8.421-8.421,8.179,8.179,0,0,0-1.168-4.027h5.195a7.69,7.69,0,0,0,7.69-7.69,7.55,7.55,0,0,0-3.422-6.224h3.786a6.222,6.222,0,0,0,6.224-6.224,6.059,6.059,0,0,0-1.242-3.541A16.065,16.065,0,0,0,179.129,357.376Z" transform="translate(-30.334 -287.081)" fill="#5f8012"/>
                  <path id="Path_52826" data-name="Path 52826" d="M153.289,357.376a16.061,16.061,0,0,0-10.713-15.111A19.071,19.071,0,0,0,130.41,317.43a12.29,12.29,0,0,0,.18-1.789,12.448,12.448,0,0,0-12.448-12.448h-1.572a10.566,10.566,0,0,0-9.046-16.112h-22.7a10.571,10.571,0,0,0-9.046,16.112H64.689a12.431,12.431,0,0,0-12.175,15.025,19.322,19.322,0,0,0-5.718,31.1H45.285a9.152,9.152,0,1,0,0,18.3H47.9a10.887,10.887,0,0,0,7.433,17.443,13.732,13.732,0,0,0-.159,1.6,13.912,13.912,0,0,0,13.914,13.91h.074a8.378,8.378,0,0,0,8.344,8.058h39.542a8.42,8.42,0,0,0,8.421-8.421,8.179,8.179,0,0,0-1.168-4.027h5.195a7.69,7.69,0,0,0,7.69-7.69,7.55,7.55,0,0,0-3.422-6.224h3.786a6.222,6.222,0,0,0,6.224-6.224,6.086,6.086,0,0,0-1.242-3.541A16.065,16.065,0,0,0,153.289,357.376Z" transform="translate(-36.129 -287.081)" fill="#8bb43d"/>
                  <path id="Path_52827" data-name="Path 52827" d="M103.757,348.963a9.851,9.851,0,0,0-7.163-9.41,6.7,6.7,0,0,0,4.782-5.105h14.172a9.979,9.979,0,0,0,0-19.959H97.856a9.553,9.553,0,0,0,.457-2.263,9.979,9.979,0,0,0-9.977-9.981H46.588c.086.09.118.221.208.31H45.285a9.152,9.152,0,1,0,0,18.3H47.9A10.887,10.887,0,0,0,55.328,338.3a13.731,13.731,0,0,0-.159,1.6,13.912,13.912,0,0,0,13.914,13.91h.074a8.381,8.381,0,0,0,8.344,8.058h39.542a8.42,8.42,0,0,0,8.421-8.421c0-.151-.106-.257-.118-.4H102.838A9.821,9.821,0,0,0,103.757,348.963Z" transform="translate(-36.129 -240.314)" fill="#709114"/>
                  <path id="Path_52828" data-name="Path 52828" d="M99.026,317.43a12.289,12.289,0,0,0,.18-1.789,12.451,12.451,0,0,0-12.448-12.452H85.185a10.487,10.487,0,0,0,1.572-5.489,10.618,10.618,0,0,0-10.619-10.619H65.394a7.924,7.924,0,0,0-.58,2.573,8.379,8.379,0,0,0,6.089,8A5.689,5.689,0,0,0,66.836,302H54.788a8.485,8.485,0,0,0,0,16.969H69.829a8.24,8.24,0,0,0-.388,1.928,8.485,8.485,0,0,0,8.487,8.487H111.25A19.441,19.441,0,0,0,99.026,317.43Z" transform="translate(-4.745 -287.081)" fill="#b9dd59"/>
                </g>
                <g id="Group_7881" data-name="Group 7881" transform="translate(94.534)">
                  <g id="Group_7880" data-name="Group 7880" transform="translate(67.091 90.94)">
                    <path id="Path_52829" data-name="Path 52829" d="M91.427,437.435l-3.208-144.1H79.431L75.7,437.435Z" transform="translate(-75.703 -293.334)" fill="#79442b"/>
                    <path id="Path_52830" data-name="Path 52830" d="M80.857,428.249,81.131,297.5a1.182,1.182,0,1,0-2.365,0L76.577,428.249Z" transform="translate(-73.009 -284.146)" fill="#a35233"/>
                  </g>
                  <path id="Path_52831" data-name="Path 52831" d="M208.2,344.274a16.733,16.733,0,0,0-11.158-15.74,19.862,19.862,0,0,0-12.673-25.864,12.731,12.731,0,0,0,.188-1.862A12.963,12.963,0,0,0,171.6,287.844h-1.638a10.941,10.941,0,0,0,1.638-5.722,11.056,11.056,0,0,0-11.056-11.056h-48.6a11,11,0,0,0-9.422,16.777H90.973A12.945,12.945,0,0,0,78.3,303.495a20.126,20.126,0,0,0-5.959,32.391H70.765a9.532,9.532,0,1,0,0,19.064h2.72a11.338,11.338,0,0,0,7.739,18.166,14.788,14.788,0,0,0-.167,1.662,14.489,14.489,0,0,0,14.49,14.486h.078a8.731,8.731,0,0,0,8.691,8.393h66.137a8.771,8.771,0,0,0,8.768-8.772,8.578,8.578,0,0,0-1.213-4.194h5.407a8.008,8.008,0,0,0,8.009-8,7.856,7.856,0,0,0-3.561-6.481H191.8a6.482,6.482,0,0,0,6.481-6.486,6.324,6.324,0,0,0-1.295-3.688A16.727,16.727,0,0,0,208.2,344.274Z" transform="translate(-53.24 -271.067)" fill="#5f8012"/>
                  <path id="Path_52832" data-name="Path 52832" d="M181.292,344.274a16.733,16.733,0,0,0-11.158-15.74,19.862,19.862,0,0,0-12.673-25.864,12.733,12.733,0,0,0,.188-1.862,12.963,12.963,0,0,0-12.963-12.963h-1.638a10.94,10.94,0,0,0,1.638-5.722,11.056,11.056,0,0,0-11.056-11.056H109.988a11.056,11.056,0,0,0-11.056,11.056,10.94,10.94,0,0,0,1.638,5.722H89.02a12.966,12.966,0,0,0-12.967,12.963,13.242,13.242,0,0,0,.286,2.687,20.122,20.122,0,0,0-5.955,32.391H68.808a9.532,9.532,0,1,0,0,19.064h2.724a11.338,11.338,0,0,0,7.739,18.166,14.783,14.783,0,0,0-.167,1.662,14.489,14.489,0,0,0,14.49,14.486h.078a8.728,8.728,0,0,0,8.691,8.393h41.18a8.771,8.771,0,0,0,8.769-8.772,8.538,8.538,0,0,0-1.217-4.194h5.411a8.008,8.008,0,0,0,8.009-8,7.856,7.856,0,0,0-3.561-6.481h3.941a6.482,6.482,0,0,0,6.481-6.486,6.324,6.324,0,0,0-1.295-3.688A16.727,16.727,0,0,0,181.292,344.274Z" transform="translate(-59.276 -271.067)" fill="#b9dd59"/>
                  <path id="Path_52833" data-name="Path 52833" d="M129.706,335.512a10.264,10.264,0,0,0-7.458-9.8,6.965,6.965,0,0,0,4.979-5.313h14.756a10.394,10.394,0,0,0,0-20.788H123.559a9.894,9.894,0,0,0,.478-2.356,10.394,10.394,0,0,0-10.394-10.394H70.168c.09.094.127.229.216.323H68.812a9.532,9.532,0,1,0,0,19.064h2.716a11.342,11.342,0,0,0,7.743,18.166,14.875,14.875,0,0,0-.167,1.662,14.49,14.49,0,0,0,14.49,14.49h.078a8.724,8.724,0,0,0,8.691,8.385h41.18a8.767,8.767,0,0,0,8.769-8.768c0-.155-.11-.27-.122-.421H128.75A10.27,10.27,0,0,0,129.706,335.512Z" transform="translate(-59.276 -222.363)" fill="#8bb43d"/>
                  <path id="Path_52834" data-name="Path 52834" d="M124.779,302.669a12.728,12.728,0,0,0,.188-1.862A12.966,12.966,0,0,0,112,287.84h-1.638A10.916,10.916,0,0,0,112,282.123a11.056,11.056,0,0,0-11.056-11.056H89.754a8.211,8.211,0,0,0-.6,2.679,8.733,8.733,0,0,0,6.343,8.336,5.924,5.924,0,0,0-4.235,4.517H78.711a8.836,8.836,0,1,0,0,17.672H94.377a8.516,8.516,0,0,0-.4,2.009,8.835,8.835,0,0,0,8.834,8.838h34.706A20.265,20.265,0,0,0,124.779,302.669Z" transform="translate(-26.594 -271.067)" fill="#dcf490"/>
                </g>
                <g id="Group_7883" data-name="Group 7883" transform="translate(181.047 100.113)">
                  <g id="Group_7882" data-name="Group 7882" transform="translate(49.312 86.633)">
                    <path id="Path_52835" data-name="Path 52835" d="M107.342,365.088l-3.022-48.3H96.044l-3.511,48.3Z" transform="translate(-92.533 -316.792)" fill="#79442b"/>
                    <path id="Path_52836" data-name="Path 52836" d="M97.387,356.436l.257-35.723a1.113,1.113,0,1,0-2.226,0l-2.062,35.723Z" transform="translate(-89.996 -308.14)" fill="#a35233"/>
                  </g>
                  <path id="Path_52837" data-name="Path 52837" d="M194.055,351.418a12.765,12.765,0,0,0-8.511-12.007,15.145,15.145,0,0,0-9.667-19.726,9.573,9.573,0,0,0,.147-1.421,9.889,9.889,0,0,0-9.892-9.887h-1.246a8.4,8.4,0,0,0-7.188-12.8H120.631a8.433,8.433,0,0,0-8.434,8.434,8.337,8.337,0,0,0,1.25,4.362h-8.809a9.863,9.863,0,0,0-9.671,11.938,15.353,15.353,0,0,0-4.546,24.709h-1.2a7.27,7.27,0,1,0,0,14.539H91.3A8.649,8.649,0,0,0,97.2,373.418a10.8,10.8,0,0,0-.127,1.266,11.051,11.051,0,0,0,11.052,11.052h.057a6.662,6.662,0,0,0,6.633,6.4h50.446a6.693,6.693,0,0,0,6.69-6.69,6.544,6.544,0,0,0-.927-3.2h4.125a6.107,6.107,0,0,0,6.106-6.11,5.992,5.992,0,0,0-2.716-4.942h3.01a4.944,4.944,0,0,0,4.942-4.946,4.8,4.8,0,0,0-.988-2.814A12.758,12.758,0,0,0,194.055,351.418Z" transform="translate(-75.858 -295.58)" fill="#5f8012"/>
                  <path id="Path_52838" data-name="Path 52838" d="M173.527,351.418a12.77,12.77,0,0,0-8.511-12.007,15.145,15.145,0,0,0-9.667-19.726,9.57,9.57,0,0,0,.143-1.421,9.888,9.888,0,0,0-9.888-9.887h-1.246a8.4,8.4,0,0,0-7.188-12.8H119.139a8.431,8.431,0,0,0-8.434,8.434,8.338,8.338,0,0,0,1.25,4.362h-8.813a9.888,9.888,0,0,0-9.888,9.887,9.7,9.7,0,0,0,.221,2.05,15.353,15.353,0,0,0-4.546,24.709h-1.2a7.27,7.27,0,1,0,0,14.539H89.8a8.649,8.649,0,0,0,5.906,13.857,10.8,10.8,0,0,0-.127,1.266,11.049,11.049,0,0,0,11.052,11.052h.057a6.659,6.659,0,0,0,6.633,6.4h31.411a6.689,6.689,0,0,0,6.686-6.69,6.5,6.5,0,0,0-.927-3.2h4.129a6.107,6.107,0,0,0,6.106-6.11,5.992,5.992,0,0,0-2.716-4.942h3.006a4.945,4.945,0,0,0,4.946-4.946,4.824,4.824,0,0,0-.988-2.814A12.758,12.758,0,0,0,173.527,351.418Z" transform="translate(-80.459 -295.58)" fill="#709114"/>
                  <path id="Path_52839" data-name="Path 52839" d="M134.177,344.737a7.827,7.827,0,0,0-5.689-7.478,5.307,5.307,0,0,0,3.8-4.051h11.256a7.927,7.927,0,0,0,0-15.854H129.492a7.826,7.826,0,0,0,.359-1.8,7.926,7.926,0,0,0-7.923-7.927H88.766c.069.074.094.176.163.245h-1.2a7.272,7.272,0,0,0,0,14.543H89.8a8.649,8.649,0,0,0,5.906,13.857,10.8,10.8,0,0,0-.127,1.266,11.049,11.049,0,0,0,11.052,11.051h.057a6.662,6.662,0,0,0,6.633,6.4h31.411a6.689,6.689,0,0,0,6.686-6.69c0-.119-.082-.2-.09-.323H133.45A7.82,7.82,0,0,0,134.177,344.737Z" transform="translate(-80.459 -258.432)" fill="#5f8012"/>
                  <path id="Path_52840" data-name="Path 52840" d="M130.42,319.684a9.568,9.568,0,0,0,.143-1.421,9.888,9.888,0,0,0-9.888-9.887h-1.25a8.337,8.337,0,0,0,1.25-4.362,8.431,8.431,0,0,0-8.434-8.434h-8.536a6.228,6.228,0,0,0-.461,2.042,6.666,6.666,0,0,0,4.836,6.359,4.515,4.515,0,0,0-3.226,3.447H95.281a6.739,6.739,0,0,0,0,13.478h11.95a6.413,6.413,0,0,0-.31,1.531,6.744,6.744,0,0,0,6.743,6.743h26.469A15.451,15.451,0,0,0,130.42,319.684Z" transform="translate(-55.53 -295.58)" fill="#8bb43d"/>
                </g>
              </g>
            </g>
            <g id="Group_7893" data-name="Group 7893" transform="translate(0 188.749)">
              <g id="Group_7886" data-name="Group 7886" transform="translate(73.889 4.007)">
                <path id="Path_52841" data-name="Path 52841" d="M58.186,351.022h1.062a4.431,4.431,0,0,0,3.026,7.094,4.161,4.161,0,0,0,.294,2.434H105.1a3.174,3.174,0,0,0,.208-1.041,3.076,3.076,0,0,0-1.389-2.532h1.536a2.529,2.529,0,0,0,2.532-2.532,2.437,2.437,0,0,0-.506-1.438,6.514,6.514,0,0,0,.02-12.3,7.754,7.754,0,0,0,.486-2.638,7.864,7.864,0,0,0-5.432-7.462,5.408,5.408,0,0,0,.074-.727,5.063,5.063,0,0,0-5.064-5.064h-.641a4.258,4.258,0,0,0,.641-2.234,4.316,4.316,0,0,0-4.317-4.317H74.269a4.3,4.3,0,0,0-3.68,6.551H66.08a5.063,5.063,0,0,0-5.064,5.064,5.188,5.188,0,0,0,.11,1.046A7.861,7.861,0,0,0,58.8,343.577h-.617a3.723,3.723,0,0,0,0,7.445Z" transform="translate(-51.345 -318.264)" fill="#5f8012"/>
                <path id="Path_52842" data-name="Path 52842" d="M57.422,351.022h1.066a4.4,4.4,0,0,0-.915,2.679,4.453,4.453,0,0,0,3.937,4.415,4.162,4.162,0,0,0,.294,2.434H94.587a2.907,2.907,0,0,0-1.18-3.574h1.54a2.532,2.532,0,0,0,2.532-2.532,2.464,2.464,0,0,0-.506-1.438,6.514,6.514,0,0,0,.02-12.3,7.752,7.752,0,0,0-4.95-10.1,4.819,4.819,0,0,0,.074-.727,5.062,5.062,0,0,0-5.06-5.064h-.641a4.258,4.258,0,0,0,.641-2.234,4.319,4.319,0,0,0-4.321-4.317H73.5a4.3,4.3,0,0,0-3.68,6.551H65.316a5.063,5.063,0,0,0-5.064,5.064,4.91,4.91,0,0,0,.114,1.046,7.859,7.859,0,0,0-2.328,12.652h-.617a3.723,3.723,0,0,0,0,7.445Z" transform="translate(-53.701 -318.264)" fill="#8bb43d"/>
                <path id="Path_52843" data-name="Path 52843" d="M57.422,332h1.066a4.4,4.4,0,0,0-.915,2.679A4.453,4.453,0,0,0,61.51,339.1a4.162,4.162,0,0,0,.294,2.434H80.55a3.957,3.957,0,0,0-2.258-1.928,2.714,2.714,0,0,0,1.944-2.075H86a4.06,4.06,0,1,0,0-8.119H78.806a3.791,3.791,0,0,0-3.872-4.978H57.952c.037.037.049.09.086.127h-.617a3.723,3.723,0,0,0,0,7.445Z" transform="translate(-53.701 -299.245)" fill="#709114"/>
                <path id="Path_52844" data-name="Path 52844" d="M79.28,330.606a4.768,4.768,0,0,0,.073-.727,5.062,5.062,0,0,0-5.06-5.064h-.641a4.259,4.259,0,0,0,.641-2.234,4.319,4.319,0,0,0-4.321-4.317H65.6a3.2,3.2,0,0,0-.233,1.045,3.409,3.409,0,0,0,2.475,3.255,2.307,2.307,0,0,0-1.654,1.764h-4.9a3.451,3.451,0,0,0,0,6.9h6.118a3.341,3.341,0,0,0-.159.784,3.455,3.455,0,0,0,3.451,3.451H84.255A7.906,7.906,0,0,0,79.28,330.606Z" transform="translate(-40.939 -318.264)" fill="#b9dd59"/>
              </g>
              <g id="Group_7887" data-name="Group 7887" transform="translate(240.491 10.798)">
                <path id="Path_52845" data-name="Path 52845" d="M98.259,347.421h.894a3.716,3.716,0,0,0,2.536,5.955,4.873,4.873,0,0,0-.057.547,4.6,4.6,0,0,0,.306,1.5h35.7a2.6,2.6,0,0,0,.176-.874,2.575,2.575,0,0,0-1.168-2.124h1.291a2.123,2.123,0,0,0,2.124-2.128,2.091,2.091,0,0,0-.421-1.209,5.469,5.469,0,0,0,.016-10.324,6.52,6.52,0,0,0-4.154-8.478,4.143,4.143,0,0,0-4.19-4.86h-.535a3.573,3.573,0,0,0,.535-1.875,3.622,3.622,0,0,0-3.623-3.623H111.757a3.607,3.607,0,0,0-3.088,5.5h-3.786a4.25,4.25,0,0,0-4.247,4.251,4.13,4.13,0,0,0,.094.878,6.6,6.6,0,0,0-1.952,10.619h-.519a3.124,3.124,0,1,0,0,6.249Z" transform="translate(-92.517 -319.927)" fill="#5f8012"/>
                <path id="Path_52846" data-name="Path 52846" d="M97.618,347.421h.89a3.72,3.72,0,0,0,2.54,5.955,4.07,4.07,0,0,0-.057.547,4.708,4.708,0,0,0,.3,1.5h27.518a2.6,2.6,0,0,0,.176-.874,2.565,2.565,0,0,0-1.168-2.124h1.295a2.126,2.126,0,0,0,2.124-2.128,2.066,2.066,0,0,0-.425-1.209,5.467,5.467,0,0,0,.016-10.324,6.529,6.529,0,0,0,.408-2.213,6.607,6.607,0,0,0-4.562-6.265,3.749,3.749,0,0,0,.061-.609,4.248,4.248,0,0,0-4.247-4.251h-.535a3.607,3.607,0,0,0-3.092-5.5h-7.747a3.622,3.622,0,0,0-3.623,3.623,3.573,3.573,0,0,0,.535,1.875h-3.786A4.248,4.248,0,0,0,100,329.675a4.413,4.413,0,0,0,.09.878,6.6,6.6,0,0,0-1.952,10.619h-.515a3.124,3.124,0,1,0,0,6.249Z" transform="translate(-94.494 -319.927)" fill="#8bb43d"/>
                <path id="Path_52847" data-name="Path 52847" d="M97.618,331.458h.89a3.72,3.72,0,0,0,2.54,5.955,4.073,4.073,0,0,0-.057.547,4.709,4.709,0,0,0,.3,1.5H117.03a3.322,3.322,0,0,0-1.9-1.617,2.293,2.293,0,0,0,1.634-1.744H121.6a3.406,3.406,0,0,0,0-6.812h-6.04a3.283,3.283,0,0,0,.159-.772,3.41,3.41,0,0,0-3.406-3.41H98.063c.029.033.041.078.069.106h-.515a3.124,3.124,0,1,0,0,6.249Z" transform="translate(-94.494 -303.964)" fill="#709114"/>
                <path id="Path_52848" data-name="Path 52848" d="M115.965,330.284a3.748,3.748,0,0,0,.061-.609,4.248,4.248,0,0,0-4.247-4.251h-.539a3.576,3.576,0,0,0,.539-1.875,3.622,3.622,0,0,0-3.623-3.623h-3.672a2.749,2.749,0,0,0-.2.878,2.862,2.862,0,0,0,2.079,2.732,1.939,1.939,0,0,0-1.389,1.483h-4.113a2.9,2.9,0,1,0,0,5.791H106a2.719,2.719,0,0,0-.131.657,2.893,2.893,0,0,0,2.9,2.9h11.374A6.649,6.649,0,0,0,115.965,330.284Z" transform="translate(-83.783 -319.927)" fill="#b9dd59"/>
              </g>
              <g id="Group_7888" data-name="Group 7888" transform="translate(31.292 15.858)">
                <path id="Path_52849" data-name="Path 52849" d="M46.5,344.743h.764a3.167,3.167,0,0,0-.658,1.928,3.2,3.2,0,0,0,2.834,3.177,3.529,3.529,0,0,0-.049.466,3.989,3.989,0,0,0,.261,1.286H80.259a2.1,2.1,0,0,0-.849-2.573h1.107a1.818,1.818,0,0,0,1.821-1.821,1.783,1.783,0,0,0-.363-1.037,4.686,4.686,0,0,0,.016-8.85,5.589,5.589,0,0,0-3.561-7.27,3.548,3.548,0,0,0-3.59-4.166h-.462a3.092,3.092,0,0,0-2.646-4.717H58.07a3.1,3.1,0,0,0-2.646,4.717H52.177a3.644,3.644,0,0,0-3.643,3.643,3.568,3.568,0,0,0,.082.756,5.656,5.656,0,0,0-1.674,9.1H46.5a2.679,2.679,0,1,0,0,5.358Z" transform="translate(-41.575 -321.166)" fill="#5f8012"/>
                <path id="Path_52850" data-name="Path 52850" d="M45.95,344.743h.764a3.167,3.167,0,0,0-.658,1.928,3.207,3.207,0,0,0,2.834,3.177,3.526,3.526,0,0,0-.049.466A3.989,3.989,0,0,0,49.1,351.6H72.7a2.1,2.1,0,0,0-.849-2.573h1.107a1.821,1.821,0,0,0,1.821-1.821,1.783,1.783,0,0,0-.363-1.037,4.688,4.688,0,0,0,.016-8.85,5.589,5.589,0,0,0-3.561-7.27,3.548,3.548,0,0,0-3.594-4.166h-.457a3.1,3.1,0,0,0-2.651-4.717H57.524a3.1,3.1,0,0,0-2.651,4.717H51.631a3.645,3.645,0,0,0-3.647,3.643,3.854,3.854,0,0,0,.082.756,5.656,5.656,0,0,0-1.674,9.1H45.95a2.679,2.679,0,1,0,0,5.358Z" transform="translate(-43.271 -321.166)" fill="#8bb43d"/>
                <path id="Path_52851" data-name="Path 52851" d="M45.95,331.056h.764a3.166,3.166,0,0,0-.658,1.928,3.207,3.207,0,0,0,2.834,3.177,3.528,3.528,0,0,0-.049.466,3.989,3.989,0,0,0,.261,1.287h13.49a2.857,2.857,0,0,0-1.625-1.389,1.958,1.958,0,0,0,1.4-1.495h4.145a2.92,2.92,0,1,0,0-5.84H61.339a3.012,3.012,0,0,0,.131-.662,2.923,2.923,0,0,0-2.92-2.924H46.334c.025.029.033.065.057.094H45.95a2.679,2.679,0,1,0,0,5.358Z" transform="translate(-43.271 -307.479)" fill="#709114"/>
                <path id="Path_52852" data-name="Path 52852" d="M61.683,330.049a3.548,3.548,0,0,0-3.594-4.166h-.457a3.1,3.1,0,0,0-2.651-4.717H51.836a2.339,2.339,0,0,0-.167.756,2.45,2.45,0,0,0,1.781,2.34,1.667,1.667,0,0,0-1.188,1.27H48.732a2.483,2.483,0,0,0,0,4.966h4.4a2.384,2.384,0,0,0-.114.564,2.489,2.489,0,0,0,2.487,2.487H65.26A5.7,5.7,0,0,0,61.683,330.049Z" transform="translate(-34.087 -321.166)" fill="#b9dd59"/>
              </g>
              <g id="Group_7889" data-name="Group 7889" transform="translate(283.957)">
                <path id="Path_52853" data-name="Path 52853" d="M110.094,353.468h1.172a4.892,4.892,0,0,0,3.341,7.837,5.877,5.877,0,0,0-.074.715,6.233,6.233,0,0,0,.4,1.973h46.979a3.213,3.213,0,0,0-1.307-3.945h1.7a2.8,2.8,0,0,0,2.793-2.8,2.711,2.711,0,0,0-.555-1.589,7.2,7.2,0,0,0,.02-13.588,8.571,8.571,0,0,0-5.465-11.158,5.77,5.77,0,0,0,.082-.8,5.593,5.593,0,0,0-5.6-5.6h-.7a4.751,4.751,0,0,0-4.064-7.237H127.855a4.771,4.771,0,0,0-4.77,4.77,4.7,4.7,0,0,0,.707,2.467h-4.983a5.592,5.592,0,0,0-5.591,5.6,5.662,5.662,0,0,0,.123,1.156,8.682,8.682,0,0,0-2.569,13.972h-.678a4.113,4.113,0,0,0,0,8.225Z" transform="translate(-102.534 -317.283)" fill="#5f8012"/>
                <path id="Path_52854" data-name="Path 52854" d="M109.25,353.468h1.172a4.892,4.892,0,0,0,3.341,7.837,5.875,5.875,0,0,0-.074.715,6.126,6.126,0,0,0,.4,1.973H150.3a3.216,3.216,0,0,0-1.3-3.945h1.7a2.8,2.8,0,0,0,2.8-2.8,2.715,2.715,0,0,0-.56-1.589,7.2,7.2,0,0,0,.02-13.588,8.557,8.557,0,0,0-5.464-11.158,5.786,5.786,0,0,0,.082-.8,5.592,5.592,0,0,0-5.591-5.6h-.706a4.746,4.746,0,0,0-4.064-7.237h-10.2a4.746,4.746,0,0,0-4.064,7.237h-4.983a5.592,5.592,0,0,0-5.591,5.6,5.656,5.656,0,0,0,.123,1.156,8.682,8.682,0,0,0-2.569,13.972h-.678a4.113,4.113,0,0,0,0,8.225Z" transform="translate(-105.137 -317.283)" fill="#8bb43d"/>
                <path id="Path_52855" data-name="Path 52855" d="M109.25,332.459h1.172a4.892,4.892,0,0,0,3.341,7.837,5.875,5.875,0,0,0-.074.715,6.234,6.234,0,0,0,.4,1.973H134.8a4.4,4.4,0,0,0-2.5-2.128,3.01,3.01,0,0,0,2.148-2.291h6.363a4.484,4.484,0,0,0,0-8.969h-7.948a4.244,4.244,0,0,0,.208-1.017,4.486,4.486,0,0,0-4.484-4.484H109.834c.041.041.057.1.094.139h-.678a4.113,4.113,0,0,0,0,8.225Z" transform="translate(-105.137 -296.274)" fill="#709114"/>
                <path id="Path_52856" data-name="Path 52856" d="M133.392,330.916a5.716,5.716,0,0,0,.082-.8,5.592,5.592,0,0,0-5.591-5.591h-.706a4.746,4.746,0,0,0-4.064-7.237h-4.827a3.558,3.558,0,0,0-.261,1.16,3.767,3.767,0,0,0,2.736,3.594,2.545,2.545,0,0,0-1.826,1.948h-5.415a3.81,3.81,0,1,0,0,7.621h6.759a3.653,3.653,0,0,0-.176.87,3.812,3.812,0,0,0,3.81,3.81h14.972A8.742,8.742,0,0,0,133.392,330.916Z" transform="translate(-91.04 -317.283)" fill="#b9dd59"/>
              </g>
              <g id="Group_7890" data-name="Group 7890" transform="translate(137.723 15.858)">
                <path id="Path_52857" data-name="Path 52857" d="M72.56,344.743h.764a3.186,3.186,0,0,0,2.177,5.105,4.376,4.376,0,0,0-.045.466,3.986,3.986,0,0,0,.257,1.286h30.606a2.084,2.084,0,0,0-.849-2.573h1.111a1.821,1.821,0,0,0,1.822-1.821,1.783,1.783,0,0,0-.363-1.037,4.687,4.687,0,0,0,.012-8.85,5.575,5.575,0,0,0-3.561-7.27,3.548,3.548,0,0,0-3.59-4.166h-.462a3.048,3.048,0,0,0,.462-1.609,3.11,3.11,0,0,0-3.108-3.108H84.134a3.092,3.092,0,0,0-2.646,4.717H78.241a3.641,3.641,0,0,0-3.643,3.643,3.853,3.853,0,0,0,.078.756,5.656,5.656,0,0,0-1.674,9.1H72.56a2.679,2.679,0,1,0,0,5.358Z" transform="translate(-67.635 -321.166)" fill="#5f8012"/>
                <path id="Path_52858" data-name="Path 52858" d="M72.01,344.743h.768a3.166,3.166,0,0,0-.658,1.928,3.2,3.2,0,0,0,2.83,3.177,4.38,4.38,0,0,0-.045.466,3.985,3.985,0,0,0,.257,1.286H98.757a2.1,2.1,0,0,0-.85-2.573h1.107a1.821,1.821,0,0,0,1.826-1.821,1.787,1.787,0,0,0-.368-1.037,4.686,4.686,0,0,0,.016-8.85,5.575,5.575,0,0,0-3.561-7.27,3.548,3.548,0,0,0-3.59-4.166h-.461a3.092,3.092,0,0,0-2.646-4.717H83.584a3.092,3.092,0,0,0-2.646,4.717H77.691a3.641,3.641,0,0,0-3.643,3.643,3.567,3.567,0,0,0,.082.756,5.656,5.656,0,0,0-1.674,9.1H72.01a2.679,2.679,0,1,0,0,5.358Z" transform="translate(-69.331 -321.166)" fill="#8bb43d"/>
                <path id="Path_52859" data-name="Path 52859" d="M72.01,331.056h.768a3.166,3.166,0,0,0-.658,1.928,3.2,3.2,0,0,0,2.83,3.177,4.383,4.383,0,0,0-.045.466,3.986,3.986,0,0,0,.257,1.287H88.657a2.87,2.87,0,0,0-1.625-1.389,1.959,1.959,0,0,0,1.4-1.495h4.149a2.92,2.92,0,0,0,0-5.84H87.4a2.8,2.8,0,0,0,.135-.662,2.923,2.923,0,0,0-2.92-2.924H72.394c.024.029.033.065.061.094H72.01a2.679,2.679,0,1,0,0,5.358Z" transform="translate(-69.331 -307.479)" fill="#709114"/>
                <path id="Path_52860" data-name="Path 52860" d="M87.74,330.049a3.548,3.548,0,0,0-3.59-4.166h-.462a3.092,3.092,0,0,0-2.647-4.717H77.9a2.343,2.343,0,0,0-.172.756,2.449,2.449,0,0,0,1.785,2.34,1.672,1.672,0,0,0-1.193,1.27H74.793a2.483,2.483,0,1,0,0,4.966h4.4a2.385,2.385,0,0,0-.114.564,2.486,2.486,0,0,0,2.483,2.487h9.753A5.694,5.694,0,0,0,87.74,330.049Z" transform="translate(-60.144 -321.166)" fill="#b9dd59"/>
              </g>
              <g id="Group_7891" data-name="Group 7891" transform="translate(0 25.44)">
                <path id="Path_52861" data-name="Path 52861" d="M37.82,339.664h.523a2.186,2.186,0,0,0,1.491,3.5,2.711,2.711,0,0,0-.033.319,2.76,2.76,0,0,0,.18.882H60.952a1.448,1.448,0,0,0,.106-.515,1.517,1.517,0,0,0-.686-1.25h.76a1.248,1.248,0,0,0,1.246-1.246,1.209,1.209,0,0,0-.249-.711,3.214,3.214,0,0,0,.012-6.069A3.829,3.829,0,0,0,59.7,329.6a2.615,2.615,0,0,0,.037-.359,2.5,2.5,0,0,0-2.5-2.5h-.314a2.12,2.12,0,0,0-1.817-3.231H45.751a2.115,2.115,0,0,0-1.813,3.231H41.712a2.492,2.492,0,0,0-2.5,2.5,2.69,2.69,0,0,0,.053.519,3.874,3.874,0,0,0-1.148,6.236h-.3a1.836,1.836,0,0,0,0,3.672Z" transform="translate(-34.446 -323.512)" fill="#5f8012"/>
                <path id="Path_52862" data-name="Path 52862" d="M37.443,339.664h.527a2.182,2.182,0,0,0,1.491,3.5,2.714,2.714,0,0,0-.033.319,2.757,2.757,0,0,0,.176.882H55.772a1.54,1.54,0,0,0,.1-.515,1.517,1.517,0,0,0-.686-1.25h.76a1.218,1.218,0,0,0,1-1.956,3.215,3.215,0,0,0,.008-6.069,3.817,3.817,0,0,0,.241-1.3,3.877,3.877,0,0,0-2.679-3.68,2.615,2.615,0,0,0,.037-.359,2.5,2.5,0,0,0-2.5-2.5h-.314a2.12,2.12,0,0,0-1.813-3.231H45.374a2.12,2.12,0,0,0-1.813,3.231H41.335a2.5,2.5,0,0,0-2.5,2.5,2.69,2.69,0,0,0,.053.519,3.876,3.876,0,0,0-1.144,6.236h-.306a1.836,1.836,0,0,0,0,3.672Z" transform="translate(-35.609 -323.512)" fill="#8bb43d"/>
                <path id="Path_52863" data-name="Path 52863" d="M37.443,330.286h.527a2.182,2.182,0,0,0,1.491,3.5,2.714,2.714,0,0,0-.033.319,2.756,2.756,0,0,0,.176.882H48.85a1.972,1.972,0,0,0-1.115-.952,1.342,1.342,0,0,0,.96-1.025h2.843a2,2,0,1,0,0-4H47.988a1.822,1.822,0,0,0,.094-.453,2,2,0,0,0-2-2H37.7c.02.016.024.045.045.061h-.306a1.836,1.836,0,0,0,0,3.671Z" transform="translate(-35.609 -314.133)" fill="#709114"/>
                <path id="Path_52864" data-name="Path 52864" d="M48.224,329.6a2.616,2.616,0,0,0,.037-.359,2.5,2.5,0,0,0-2.5-2.5h-.314a2.12,2.12,0,0,0-1.813-3.231H41.477a1.55,1.55,0,0,0-.114.515,1.682,1.682,0,0,0,1.221,1.605,1.137,1.137,0,0,0-.817.87H39.349a1.7,1.7,0,0,0,0,3.4h3.018a1.6,1.6,0,0,0-.078.388,1.7,1.7,0,0,0,1.7,1.7h6.682A3.894,3.894,0,0,0,48.224,329.6Z" transform="translate(-29.314 -323.512)" fill="#b9dd59"/>
              </g>
              <g id="Group_7892" data-name="Group 7892" transform="translate(174.092 9.263)">
                <path id="Path_52865" data-name="Path 52865" d="M82.209,348.56h.939a3.921,3.921,0,0,0,2.679,6.281,4.515,4.515,0,0,0-.061.576A4.867,4.867,0,0,0,86.089,357h37.659a2.771,2.771,0,0,0,.184-.923,2.719,2.719,0,0,0-1.229-2.242h1.364a2.236,2.236,0,0,0,2.238-2.238,2.19,2.19,0,0,0-.445-1.278,5.768,5.768,0,0,0,.016-10.892,6.87,6.87,0,0,0-4.382-8.944,4.161,4.161,0,0,0,.065-.641,4.48,4.48,0,0,0-4.48-4.484h-.568a3.8,3.8,0,0,0-3.259-5.8H96.45a3.8,3.8,0,0,0-3.259,5.8H89.2a4.484,4.484,0,0,0-4.484,4.484,4.329,4.329,0,0,0,.1.927,6.962,6.962,0,0,0-2.062,11.2h-.543a3.3,3.3,0,1,0,0,6.592Z" transform="translate(-76.148 -319.551)" fill="#5f8012"/>
                <path id="Path_52866" data-name="Path 52866" d="M81.532,348.56h.943a3.921,3.921,0,0,0,2.675,6.281,5.4,5.4,0,0,0-.057.576A4.973,4.973,0,0,0,85.412,357h29.03a2.676,2.676,0,0,0,.188-.923,2.723,2.723,0,0,0-1.233-2.242h1.364A2.24,2.24,0,0,0,117,351.595a2.194,2.194,0,0,0-.449-1.278,5.769,5.769,0,0,0,.02-10.892,6.87,6.87,0,0,0-4.382-8.944,4.742,4.742,0,0,0,.065-.641,4.484,4.484,0,0,0-4.484-4.484H107.2a3.761,3.761,0,0,0,.568-1.977,3.826,3.826,0,0,0-3.823-3.827H95.773a3.809,3.809,0,0,0-3.259,5.8H88.52a4.48,4.48,0,0,0-4.48,4.484,4.329,4.329,0,0,0,.1.927,6.962,6.962,0,0,0-2.062,11.2h-.543a3.3,3.3,0,1,0,0,6.592Z" transform="translate(-78.236 -319.551)" fill="#8bb43d"/>
                <path id="Path_52867" data-name="Path 52867" d="M81.532,331.718h.943A3.921,3.921,0,0,0,85.15,338a5.4,5.4,0,0,0-.057.576,4.863,4.863,0,0,0,.319,1.58h16.6a3.53,3.53,0,0,0-2-1.707,2.4,2.4,0,0,0,1.723-1.838h5.1a3.594,3.594,0,1,0,0-7.188h-6.371a3.414,3.414,0,0,0,.167-.817,3.6,3.6,0,0,0-3.594-3.594H82c.033.033.045.082.074.114h-.543a3.3,3.3,0,1,0,0,6.592Z" transform="translate(-78.236 -302.709)" fill="#709114"/>
                <path id="Path_52868" data-name="Path 52868" d="M100.888,330.48a4.742,4.742,0,0,0,.065-.641,4.484,4.484,0,0,0-4.484-4.484H95.9a3.761,3.761,0,0,0,.568-1.977,3.826,3.826,0,0,0-3.823-3.827H88.774a2.837,2.837,0,0,0-.208.927,3.02,3.02,0,0,0,2.193,2.883,2.052,2.052,0,0,0-1.466,1.564H84.956a3.055,3.055,0,0,0,0,6.11h5.415a2.854,2.854,0,0,0,2.916,3.749h12A7.016,7.016,0,0,0,100.888,330.48Z" transform="translate(-66.933 -319.551)" fill="#b9dd59"/>
              </g>
            </g>
          </g>
        </g>
        <path id="Path_52869" data-name="Path 52869" d="M183.756,278.176H168.322a13.238,13.238,0,0,0-13.11-11.419H139.24a8.778,8.778,0,0,0-8.675-10.378h-9.34a8.777,8.777,0,0,0-8.679,10.378h-4.558A13.233,13.233,0,0,0,94.76,279.768a10.635,10.635,0,0,0,.776,21.241h3.582a11.417,11.417,0,0,0,10.169,6.228h10.978a10.375,10.375,0,0,0,9.263,5.705h8.822a10.373,10.373,0,0,0,9.259-5.705h.6a11.417,11.417,0,0,0,10.823-7.788h24.725a10.637,10.637,0,1,0,0-21.274Z" transform="translate(165.718 -233.222)" fill="#caffff"/>
        <path id="Path_52870" data-name="Path 52870" d="M183.595,297.238h-12.33a10.573,10.573,0,0,0-10.472-9.12H148.035a7.306,7.306,0,0,0,.114-1.242,7.045,7.045,0,0,0-7.049-7.049h-7.462a7.044,7.044,0,0,0-7.045,7.049,6.92,6.92,0,0,0,.114,1.242h-3.639a10.572,10.572,0,0,0-10.57,10.394,8.5,8.5,0,0,0,.621,16.969h2.863a9.111,9.111,0,0,0,8.119,4.974h8.773a8.282,8.282,0,0,0,7.4,4.558h7.049a8.278,8.278,0,0,0,7.4-4.558h.482a9.122,9.122,0,0,0,8.646-6.22h19.751a8.5,8.5,0,1,0,0-17Z" transform="translate(226.548 -160.904)" fill="#caffff"/>
        <path id="Path_52871" data-name="Path 52871" d="M76.875,294.242H68.548a7.145,7.145,0,0,0-7.074-6.163H52.857a4.745,4.745,0,0,0-4.68-5.6h-5.04a4.745,4.745,0,0,0-4.684,5.6H35.993a7.137,7.137,0,0,0-7.135,7.02,5.737,5.737,0,0,0,.417,11.46h1.932a6.167,6.167,0,0,0,5.489,3.361h5.922a5.6,5.6,0,0,0,5,3.079h4.758a5.589,5.589,0,0,0,4.995-3.079H57.7a6.166,6.166,0,0,0,5.84-4.2H76.875a5.74,5.74,0,1,0,0-11.48Z" transform="translate(-23.533 -152.725)" fill="#caffff"/>
        <path id="Path_52872" data-name="Path 52872" d="M100.407,281.831h13.314a11.41,11.41,0,0,1,11.3-9.843h13.771a7.59,7.59,0,0,1,7.482-8.948h8.058a7.569,7.569,0,0,1,7.478,8.948h3.929a11.408,11.408,0,0,1,11.407,11.219,9.168,9.168,0,0,1-.666,18.313h-3.092a9.836,9.836,0,0,1-8.768,5.371h-9.467a8.94,8.94,0,0,1-7.984,4.925h-7.6a8.94,8.94,0,0,1-7.984-4.925h-.519a9.843,9.843,0,0,1-9.332-6.71H100.407a9.175,9.175,0,0,1,0-18.35Z" transform="translate(185.262 -212.679)" fill="#84dce1"/>
        <path id="Path_52873" data-name="Path 52873" d="M69.677,264.272h9.61a8.238,8.238,0,0,1,8.156-7.106h9.941a5.8,5.8,0,0,1-.09-.968,5.49,5.49,0,0,1,5.489-5.489H108.6a5.49,5.49,0,0,1,5.489,5.489,5.4,5.4,0,0,1-.09.968h2.838a8.234,8.234,0,0,1,8.229,8.1,6.619,6.619,0,0,1-.478,13.22h-2.234a7.1,7.1,0,0,1-6.326,3.876h-6.833a6.461,6.461,0,0,1-5.763,3.553H97.939a6.461,6.461,0,0,1-5.763-3.553H91.8a7.11,7.11,0,0,1-6.739-4.848H69.677a6.62,6.62,0,0,1,0-13.241Z" transform="translate(98.362 -250.709)" fill="#84dce1"/>
        <path id="Path_52874" data-name="Path 52874" d="M109.47,300.828H121.4a10.225,10.225,0,0,1,10.124-8.822h12.342a6.777,6.777,0,0,1,6.7-8.017h7.217a6.777,6.777,0,0,1,6.7,8.017H168a10.218,10.218,0,0,1,10.218,10.055,8.213,8.213,0,0,1-.6,16.406h-2.769A8.813,8.813,0,0,1,167,323.278H158.52a8.018,8.018,0,0,1-7.155,4.411h-6.812a8.008,8.008,0,0,1-7.155-4.411h-.466a8.823,8.823,0,0,1-8.36-6.012h-19.1a8.219,8.219,0,0,1,0-16.438Z" transform="translate(216.161 -148.071)" fill="#84dce1"/>
      </g>
      <path id="Path_52875" data-name="Path 52875" d="M438.714,336.967a9.787,9.787,0,0,0-9.638-8.148H37.976a9.784,9.784,0,0,0-9.638,8.148Z" transform="translate(-8.714 -9.812)" fill="#79442b"/>
      <path id="Path_52876" data-name="Path 52876" d="M417.687,329.751a1.522,1.522,0,0,1-1.519,1.519H32.4a1.522,1.522,0,0,1-1.519-1.519h0a1.522,1.522,0,0,1,1.519-1.519H416.168a1.522,1.522,0,0,1,1.519,1.519Z" transform="translate(-0.859 -11.622)" fill="#709114"/>
    </g>
    <g id="Group_10053" data-name="Group 10053" transform="translate(14189.104 -138.455)">
      <g id="Group_7839" data-name="Group 7839" transform="translate(0 5.804)">
        <path id="Path_52759" data-name="Path 52759" d="M432.418,146.01c-9.217,0-16.245-3.383-19.792-9.525s-2.961-13.923,1.648-21.906l45.785-79.3C464.667,27.293,471.111,22.9,478.2,22.9s13.54,4.4,18.146,12.379l45.785,79.3c4.611,7.983,5.2,15.762,1.65,21.906s-10.575,9.525-19.794,9.525ZM478.423,37.195a3.636,3.636,0,1,0,3.634,3.636A3.64,3.64,0,0,0,478.423,37.195Z" transform="translate(-410.334 -22.897)" fill="#cececc"/>
        <path id="Path_52760" data-name="Path 52760" d="M541.12,114.591l-45.785-79.3c-4.469-7.742-10.683-12-17.5-12s-13.025,4.262-17.493,12l-45.785,79.3c-4.471,7.742-5.055,15.255-1.648,21.154s10.2,9.15,19.141,9.15h91.572c8.939,0,15.737-3.249,19.142-9.15S545.59,122.332,541.12,114.591ZM478.057,44.856a4.388,4.388,0,1,1,4.388-4.388A4.388,4.388,0,0,1,478.057,44.856Z" transform="translate(-409.97 -22.534)" fill="#f3f3f3"/>
        <path id="Path_52761" data-name="Path 52761" d="M535.024,114.669l-45.785-79.3c-7.5-13-19.668-13-27.174,0l-45.785,79.3c-7.5,13-1.42,23.535,13.588,23.535h91.57C536.445,138.2,542.53,127.667,535.024,114.669ZM475.869,45.057a6.769,6.769,0,1,1,6.771-6.769A6.769,6.769,0,0,1,475.869,45.057Z" transform="translate(-407.782 -20.355)" fill="#8dca4b"/>
        <g id="Group_7838" data-name="Group 7838" transform="translate(22.661 30.936)">
          <path id="Path_52762" data-name="Path 52762" d="M443.773,70.964,454.143,53l-4.771-14.109,6.563,11,4.819,8.348-11,6.664,26.443,8.561,4.9-27.542-10.766,6.52L462.5,38.893H449.372l-15.4,26.668Z" transform="translate(-410.913 -38.893)" fill="#fff"/>
          <path id="Path_52763" data-name="Path 52763" d="M463.242,62.726,473.3,80.179,487.84,83.8l-12.451,0-9.639-.007-.259-12.862-20.65,18.6,21.389,18.029-.254-12.584,15.654.012L488.2,83.63l-15.377-26.68Z" transform="translate(-400.766 -22.028)" fill="#fff"/>
          <path id="Path_52764" data-name="Path 52764" d="M462.469,85.025,441.9,85.1l-9.966,11.224,6.205-11.209,4.788-8.366,11.3,6.155-5.912-27.159-26.264,9.628L433.1,71.4,425.33,84.984l6.607,11.342,30.794-.116Z" transform="translate(-422.051 -23.151)" fill="#fff"/>
        </g>
      </g>
      <path id="Path_52765" data-name="Path 52765" d="M420.736,142.662c18.218-4.56,35.591-12.076,51.239-23.629,16.6-12.254,33.85-29.2,43.58-48.723l-20.22-35.02c-4.469-7.742-10.683-12-17.5-12s-13.025,4.262-17.493,12l-45.785,79.3c-4.471,7.742-5.055,15.255-1.648,21.154A16.894,16.894,0,0,0,420.736,142.662ZM478.057,36.079a4.388,4.388,0,1,1-4.386,4.388A4.388,4.388,0,0,1,478.057,36.079Z" transform="translate(-409.97 -16.73)" fill="#fff" opacity="0.2" style="mix-blend-mode: overlay;isolation: isolate"/>
      <path id="Path_52766" data-name="Path 52766" d="M446.593,33.424a3.627,3.627,0,0,1,1.582,2.837c.06-.066,1.155-1.269,1.042-1.133.766-.915,6-3.475,12.894-4.864q-.85-1.41-1.777-2.659C454.615,28.9,448.3,31.194,446.593,33.424Z" transform="translate(-376.469 -12.696)" fill="#0c0c01" opacity="0.2"/>
      <g id="Group_7840" data-name="Group 7840" transform="translate(68.936)">
        <path id="Path_52767" data-name="Path 52767" d="M498.707,81.033c-4.9,0-9.335-2.706-12.287-7.541-3.009-4.928-5.665-9.579-8.009-13.681-5-8.765-9.326-16.334-11.861-16.932a.715.715,0,0,0-.636.147l-1.5-2.642a3.273,3.273,0,0,1,2.831-.433c3.808.9,7.564,7.473,13.785,18.367,2.332,4.086,4.976,8.716,7.96,13.606,2.576,4.218,6.28,6.363,10.474,6.075,4.825-.348,9.239-3.872,11.515-9.2,1.911-4.467,4.833-16.7-9.266-33.757C493.409,25,483.9,21.194,473.461,23.727c-13.743,3.336-23.865,16.154-24.308,18.189.039-.176-.4,1.5-.4,1.5a2.027,2.027,0,0,1-2.557-.5c-1.654-2.619,6.512-11.02,12.482-15.346,9.521-6.9,28.077-15.354,45.352,5.552,15.153,18.338,11.84,31.885,9.714,36.86-2.721,6.363-8.111,10.583-14.066,11.012C499.353,81.021,499.03,81.033,498.707,81.033Z" transform="translate(-445.979 -19.896)" fill="#79442b"/>
      </g>
    </g>
  </g>
</svg>
